<svg width="20" height="20" viewBox="0 0 20 20" fill="none" xmlns="http://www.w3.org/2000/svg">
<path d="M19.1305 13.2367C18.695 12.714 18.2002 12.2455 17.7216 11.7924C17.5515 11.6313 17.3755 11.4647 17.2059 11.299C16.719 10.823 16.7013 10.6441 17.0868 10.1033C17.3535 9.73058 17.6363 9.35734 17.9098 8.99637C18.1578 8.66888 18.4144 8.3302 18.6602 7.99043L18.7107 7.92057C19.1806 7.27037 19.6666 6.59803 19.9252 5.78697C19.9924 5.57298 20.0629 5.25809 19.9017 4.99479C19.7406 4.7317 19.428 4.65143 19.2068 4.61394C19.0974 4.59539 18.9888 4.59286 18.888 4.59286L15.8106 4.59066L15.7852 4.59044C15.3199 4.59044 15.0063 4.80971 14.8267 5.26085C14.6551 5.69189 14.4667 6.15091 14.2517 6.58735C13.8237 7.45644 13.2803 8.45743 12.4939 9.29227L12.4606 9.32778C12.3678 9.42759 12.2626 9.5406 12.1857 9.5406C12.1739 9.5406 12.161 9.53835 12.1465 9.53378C11.9836 9.4703 11.8743 9.07598 11.8792 8.89255C11.8793 8.89002 11.8794 8.88748 11.8794 8.88495L11.8772 5.32812C11.8772 5.31579 11.8763 5.30357 11.8747 5.29134C11.7964 4.71315 11.623 4.35322 10.9678 4.2249C10.9504 4.22143 10.9326 4.21973 10.9149 4.21973H7.71504C7.19371 4.21973 6.90645 4.43162 6.63643 4.74876C6.56354 4.83354 6.41182 5.01004 6.48702 5.22413C6.56332 5.44141 6.81099 5.48788 6.89164 5.50296C7.29197 5.57915 7.51763 5.82402 7.58154 6.25187C7.69313 6.99484 7.70684 7.78784 7.6247 8.74754C7.6018 9.01426 7.55649 9.22026 7.48184 9.39626C7.4645 9.43733 7.40301 9.57138 7.34031 9.57143C7.32038 9.57143 7.26274 9.56362 7.15776 9.49128C6.90953 9.32123 6.72792 9.07856 6.5162 8.77881C5.79591 7.76087 5.1914 6.63948 4.66787 5.34981C4.4737 4.87505 4.11108 4.60927 3.64635 4.60145C3.13569 4.59369 2.67272 4.58994 2.23116 4.58994C1.74869 4.58994 1.3014 4.5944 0.86463 4.60349C0.490725 4.61009 0.232096 4.72218 0.0960106 4.93687C-0.0402952 5.15174 -0.031432 5.43398 0.12238 5.77563C1.35365 8.51292 2.47002 10.5032 3.74224 12.2291C4.63368 13.4368 5.52782 14.2728 6.55583 14.8597C7.6389 15.4793 8.85266 15.7805 10.2664 15.7805C10.4266 15.7805 10.5923 15.7766 10.7594 15.7688C11.5809 15.7288 11.8856 15.4314 11.9242 14.6316C11.9425 14.2228 11.9872 13.7942 12.1881 13.4286C12.315 13.1982 12.4332 13.1982 12.4721 13.1982C12.547 13.1982 12.6398 13.2327 12.7395 13.2973C12.9183 13.414 13.0716 13.5703 13.1973 13.7069C13.3156 13.8367 13.4326 13.9677 13.5497 14.0989C13.8023 14.3819 14.0636 14.6745 14.3365 14.952C14.934 15.5598 15.5921 15.8271 16.348 15.7691H19.1695C19.1755 15.7691 19.1815 15.7689 19.1875 15.7685C19.4687 15.7499 19.7121 15.594 19.8556 15.3406C20.0332 15.0268 20.0296 14.6264 19.846 14.2694C19.6376 13.8656 19.3673 13.5207 19.1305 13.2367Z" fill="#99A0A5"/>
</svg>
