<svg width="100" height="100" viewBox="0 0 100 100" fill="none" xmlns="http://www.w3.org/2000/svg">
<path d="M87.6726 3.99139H14.9028C10.7062 3.99139 7.30423 7.39332 7.30423 11.5899V83.2511L92.6958 77.6248V9.01457C92.6958 6.24039 90.447 3.99139 87.6726 3.99139Z" fill="url(#paint0_linear_1927_94)"/>
<path d="M92.5266 7.78561C91.9759 5.60897 90.0205 3.99139 87.6726 3.99139H14.9028C10.7062 3.99139 7.30423 7.39332 7.30423 11.5899V74.8574C87.5124 71.8601 91.0675 26.4435 92.5266 7.78561Z" fill="url(#paint1_linear_1927_94)"/>
<path d="M22.448 3.99139H14.9028C10.7062 3.99139 7.30423 7.39332 7.30423 11.5899V83.251L22.448 79.6095V3.99139Z" fill="url(#paint2_linear_1927_94)"/>
<path d="M9.53892 81.7092V91.6733C9.53892 94.6355 9.42871 92.0137 12.391 92.0137H89.0413V76.3457L14.9026 76.3456C11.9403 76.3456 9.53892 78.747 9.53892 81.7092Z" fill="url(#paint3_linear_1927_94)"/>
<path d="M89.0325 86.9916H9.45956V88.7856H89.0413V87.0103L89.0325 86.9916Z" fill="#8CA6AA"/>
<path d="M89.0325 82.0798H9.45956V83.874H89.0413V82.0987L89.0325 82.0798Z" fill="#8CA6AA"/>
<path d="M14.9028 79.3269H90.8121C91.8524 79.3269 92.6958 78.4836 92.6958 77.4432V76.741C92.6958 75.7006 91.8524 74.8573 90.8121 74.8573H14.9028C10.7063 74.8573 7.30423 78.2592 7.30423 82.4557V88.41C7.30423 92.6066 10.7063 96.0085 14.9028 96.0085H90.8121C91.8524 96.0085 92.6958 95.1651 92.6958 94.1248V93.4224C92.6958 92.3822 91.8524 91.5387 90.8121 91.5387H14.9028C13.1748 91.5387 11.774 90.1379 11.774 88.41V82.4557C11.774 80.7277 13.1748 79.3269 14.9028 79.3269Z" fill="url(#paint4_linear_1927_94)"/>
<path d="M22.448 91.5387H14.9028C13.1748 91.5387 11.774 90.1379 11.774 88.41V82.4557C11.774 80.7277 13.1748 79.3269 14.9028 79.3269H22.448V74.8573H14.9028C10.7063 74.8573 7.30423 78.2592 7.30423 82.4557V88.41C7.30423 92.6066 10.7063 96.0085 14.9028 96.0085H22.448V91.5387Z" fill="url(#paint5_linear_1927_94)"/>
<path d="M69.9848 13.5688H42.4809C40.9711 13.5688 39.7472 14.7926 39.7472 16.3024V28.8389C39.7472 30.3487 40.9711 31.5725 42.4809 31.5725H69.9848C71.4946 31.5725 72.7184 30.3487 72.7184 28.8389V16.3024C72.7184 14.7926 71.4946 13.5688 69.9848 13.5688Z" fill="url(#paint6_linear_1927_94)"/>
<path d="M42.4809 31.5724H69.9848C71.4944 31.5724 72.7183 30.3484 72.7183 28.8388V16.3023C72.7183 16.056 72.6751 15.8219 72.6141 15.5948C65.2823 22.6556 55.0738 28.6867 40.5576 30.7798C41.0515 31.2691 41.7305 31.5724 42.4809 31.5724Z" fill="url(#paint7_linear_1927_94)"/>
<path d="M63.1366 54.2039C67.7068 54.2039 71.4116 50.4991 71.4116 45.9289C71.4116 41.3588 67.7068 37.6539 63.1366 37.6539C58.5665 37.6539 54.8616 41.3588 54.8616 45.9289C54.8616 50.4991 58.5665 54.2039 63.1366 54.2039Z" fill="url(#paint8_radial_1927_94)"/>
<path d="M64.2088 46.4895L66.2477 49.0394L63.6978 46.9988L63.1372 52.0577L62.5766 46.9988L60.0267 49.0394L62.0673 46.4895L57.0085 45.9289L62.0673 45.3666L60.0267 42.8184L62.5766 44.8573L63.1372 39.8002L63.6978 44.859L66.2477 42.8184L64.2088 45.3666L69.2659 45.9289L64.2088 46.4895Z" fill="url(#paint9_radial_1927_94)"/>
<path opacity="0.5" d="M45.32 67C45.16 66.0933 45.08 65.2533 45.08 64.48C45.08 63.0933 45.32 61.8 45.8 60.6C46.3067 59.4 46.9467 58.3733 47.72 57.52C48.4933 56.64 49.3467 55.8267 50.28 55.08C51.24 54.3333 52.1867 53.64 53.12 53C54.08 52.36 54.9467 51.7333 55.72 51.12C56.4933 50.5067 57.12 49.8533 57.6 49.16C58.1067 48.44 58.36 47.7067 58.36 46.96C58.36 45.76 57.9467 44.8 57.12 44.08C56.2933 43.36 55.2667 43 54.04 43C53 43 52.0267 43.32 51.12 43.96C50.2133 44.6 49.48 45.4 48.92 46.36L45.08 43.8C45.9867 42.1467 47.24 40.7867 48.84 39.72C50.44 38.6533 52.32 38.12 54.48 38.12C57.0667 38.12 59.2533 38.88 61.04 40.4C62.8267 41.8933 63.72 43.9333 63.72 46.52C63.72 47.7467 63.48 48.9067 63 50C62.5467 51.0667 61.9467 51.9867 61.2 52.76C60.4533 53.5333 59.6133 54.2667 58.68 54.96C57.7733 55.6533 56.8667 56.2933 55.96 56.88C55.0533 57.4667 54.2133 58.0533 53.44 58.64C52.6667 59.2 52.0267 59.8133 51.52 60.48C51.04 61.1467 50.7867 61.84 50.76 62.56H64.16V67H45.32Z" fill="#265958"/>
<defs>
<linearGradient id="paint0_linear_1927_94" x1="7.30387" y1="43.6211" x2="92.6962" y2="43.6211" gradientUnits="userSpaceOnUse">
<stop stop-color="#0EDBFF"/>
<stop offset="0.832433" stop-color="#268481"/>
</linearGradient>
<linearGradient id="paint1_linear_1927_94" x1="49.0596" y1="76.6308" x2="50.0193" y2="1.56152" gradientUnits="userSpaceOnUse">
<stop stop-color="#0EDBFF"/>
<stop offset="0.832433" stop-color="#268481"/>
</linearGradient>
<linearGradient id="paint2_linear_1927_94" x1="-2.15767" y1="43.6211" x2="21.0808" y2="43.6211" gradientUnits="userSpaceOnUse">
<stop offset="0.403604" stop-color="#DD6758"/>
<stop offset="1" stop-color="#9D2E20"/>
</linearGradient>
<linearGradient id="paint3_linear_1927_94" x1="61.0077" y1="84.7153" x2="-7.63464" y2="84.7153" gradientUnits="userSpaceOnUse">
<stop offset="1e-07" stop-color="#DAE7ED"/>
<stop offset="0.524012" stop-color="#B1C5CA"/>
<stop offset="0.713274" stop-color="#A2B9BD"/>
<stop offset="1" stop-color="#8CA6AA"/>
</linearGradient>
<linearGradient id="paint4_linear_1927_94" x1="102.627" y1="85.4326" x2="30.3193" y2="85.4326" gradientUnits="userSpaceOnUse">
<stop stop-color="#0EDBFF"/>
<stop offset="0.832433" stop-color="#268481"/>
</linearGradient>
<linearGradient id="paint5_linear_1927_94" x1="14.877" y1="99.4096" x2="14.877" y2="74.7634" gradientUnits="userSpaceOnUse">
<stop offset="0.403604" stop-color="#D64937"/>
<stop offset="1" stop-color="#9D2E20"/>
</linearGradient>
<linearGradient id="paint6_linear_1927_94" x1="56.2328" y1="17.5539" x2="56.2328" y2="37.9289" gradientUnits="userSpaceOnUse">
<stop offset="1e-07" stop-color="#DAE7ED"/>
<stop offset="0.713274" stop-color="#A2B9BD"/>
<stop offset="1" stop-color="#8CA6AA"/>
</linearGradient>
<linearGradient id="paint7_linear_1927_94" x1="54.8654" y1="10.3961" x2="58.5942" y2="37.8941" gradientUnits="userSpaceOnUse">
<stop offset="1e-07" stop-color="#DAE7ED"/>
<stop offset="0.713274" stop-color="#A2B9BD"/>
<stop offset="1" stop-color="#8CA6AA"/>
</linearGradient>
<radialGradient id="paint8_radial_1927_94" cx="0" cy="0" r="1" gradientUnits="userSpaceOnUse" gradientTransform="translate(63.1366 45.9289) scale(8.275 8.275)">
<stop offset="0.306307" stop-color="white" stop-opacity="0.5"/>
<stop offset="1" stop-color="white" stop-opacity="0"/>
</radialGradient>
<radialGradient id="paint9_radial_1927_94" cx="0" cy="0" r="1" gradientUnits="userSpaceOnUse" gradientTransform="translate(63.1366 45.929) scale(6.12884 6.12885)">
<stop offset="0.306306" stop-color="white"/>
<stop offset="1" stop-color="white" stop-opacity="0"/>
</radialGradient>
</defs>
</svg>
