<svg width="60" height="70" viewBox="0 0 60 70" fill="none" xmlns="http://www.w3.org/2000/svg">
<path fill-rule="evenodd" clip-rule="evenodd" d="M52.3481 50.3028C49.9071 54.0202 46.8329 57.2779 43.629 60.3169C40.5068 63.2375 37.2822 65.9528 33.9757 68.6469L33.9626 68.6582C32.8543 69.552 31.5434 69.9992 30.2314 69.9992V62.7422C35.7332 58.3311 41.5644 53.3484 45.7059 47.6767C46.1372 47.0868 46.7545 46.7684 47.4737 46.766L50.5044 46.7578C51.3463 46.7553 52.0689 47.1987 52.4654 47.9611C52.8619 48.7228 52.8187 49.5861 52.3481 50.3028Z" fill="#9D2E20"/>
<path fill-rule="evenodd" clip-rule="evenodd" d="M33.4181 0.955378L33.7342 1.15616L33.7408 1.16005L34.0606 1.35906L34.307 1.51026L34.3774 1.55382L34.463 1.60552L34.5461 1.65615L34.7725 1.79107L34.8884 1.85906L35.1093 1.98937L35.2356 2.06267L35.4133 2.16429L35.6038 2.27265L35.6193 2.28257L35.8805 2.42846L35.925 2.45289L36.227 2.61826L36.5282 2.78009L36.5727 2.8031L36.8287 2.9366L36.8539 2.9497L37.031 3.03964L37.1849 3.11755L37.3439 3.19687L37.521 3.28398L37.6452 3.34418L37.8453 3.43872L37.9902 3.50742L38.0727 3.54566L38.3101 3.65402L38.6024 3.78539L38.6089 3.78822L38.896 3.91181L38.914 3.9196L39.0693 3.98369L39.2235 4.04778L39.4181 4.12781L39.5165 4.16676L39.7128 4.24396L39.8539 4.29672L40.0168 4.35834L40.1811 4.4196L40.3291 4.47377L40.4654 4.52158L40.6535 4.58815L40.9488 4.68659L40.9606 4.69049L41.2432 4.78185L41.2991 4.80026L41.406 4.83319L41.581 4.88631L41.749 4.93624L41.8991 4.9805L42.0806 5.03149L42.1893 5.06123L42.404 5.12073L42.5344 5.15366L42.7045 5.19792L42.7366 5.20642L43.014 5.27476L43.0399 5.28114L43.345 5.35125L43.3636 5.35656L43.4899 5.38418L43.69 5.42773L43.8067 5.45288L44.0165 5.49537L44.1831 5.52759L44.3236 5.55486L44.5451 5.59629L44.6693 5.61895L44.847 5.64976L45.0337 5.68092L45.2025 5.70854L45.2249 5.71208L45.5268 5.75882L45.5468 5.76201L45.8733 5.8084L45.9002 5.81229L46.0168 5.82752L46.2511 5.85727L46.2787 5.86116L46.5361 5.89303L46.5882 5.89834L46.777 5.91888L46.9436 5.938L47.1465 5.9596L47.3249 5.97624L47.5109 5.99466L47.5572 5.99855L47.8405 6.0244L47.8584 6.02511L48.1535 6.04884L48.2435 6.05627L48.2583 6.05733L48.6162 6.08248L48.6524 6.0846L48.9775 6.10514L48.9895 6.1062L49.269 6.12214L49.3805 6.12745L49.6597 6.14126L49.777 6.14657L50.0185 6.15719L50.2018 6.16392L50.4606 6.17313L50.4737 6.17384L50.7966 6.18375L50.8612 6.18552L51.2459 6.19544H51.2546L51.6524 6.20287L51.7031 6.20358H51.7069L52.1421 6.20995H52.1672L52.4678 6.21208L52.6403 6.2135L52.8833 6.21456H53.0016H53.2432H53.3073L53.6107 6.2135L53.7363 6.21208L54.1089 6.20995H54.1728L54.6162 6.20358H54.6862H54.7566L54.8274 6.20606L54.8981 6.20748L54.9671 6.21066L55.0365 6.2135V6.21456L55.1062 6.21881L55.1745 6.22341L55.2432 6.23049L55.3108 6.23722L55.3798 6.24572L55.4474 6.25422L55.5137 6.26413L55.5806 6.27405L55.6476 6.28538L55.7138 6.29742L55.7801 6.31052V6.31123L55.8453 6.32433L55.9116 6.33885V6.33956L55.9764 6.35478L56.0403 6.37072L56.1051 6.38842L56.169 6.40684L56.2328 6.4249L56.297 6.44579L56.3594 6.46562L56.4226 6.48687L56.4851 6.50882L56.5468 6.53184V6.53255L56.6086 6.55556V6.55627L56.6693 6.5807L56.7311 6.60584L56.7922 6.63276L56.8525 6.66002L56.9126 6.68764L56.9723 6.71739L57.0309 6.74713L57.0903 6.77759L57.1493 6.80875L57.208 6.84097L57.2659 6.87461L57.3232 6.90719V6.90896L57.3805 6.9426L57.4378 6.97836L57.4933 7.01413L57.5499 7.05096L57.6065 7.08885L57.6614 7.1278L57.7173 7.16852L57.7715 7.20818L57.8267 7.24996L57.8802 7.2921L57.9336 7.3346L57.9871 7.37886L58.0399 7.42312L58.0937 7.46915L58.1448 7.51554L58.1969 7.56228L58.249 7.61009L58.2997 7.65896L58.3508 7.70853L58.4009 7.75917L58.4512 7.81016L58.5013 7.86115C59.5565 8.98012 60.0606 10.3438 59.9944 11.8983C59.8777 14.6016 59.7587 17.3087 59.6062 20.0116C59.5385 21.2159 58.5696 22.1546 57.394 22.1546H55.0199C54.3902 22.1546 53.8481 21.916 53.4136 21.4471C52.9799 20.9786 52.7749 20.41 52.8067 19.7644C52.867 18.5654 52.8187 17.359 52.3777 16.3402C51.6051 14.5559 49.9185 13.2545 47.894 13.1065L47.6472 13.0874L47.6041 13.0853L47.4016 13.0683L47.3153 13.0608L47.1576 13.0477L47.0292 13.0364L46.9154 13.0258L46.7435 13.0095L46.6735 13.0021L46.6534 13.0006L46.4326 12.9776L46.1924 12.9518L46.1776 12.9511L45.953 12.9249L45.8957 12.9181L45.7149 12.8976L45.4861 12.8693L45.4709 12.8668L45.2411 12.8363L45.0599 12.8119L45.0061 12.8045L44.9437 12.796L44.7711 12.7708L44.5368 12.7358L44.5071 12.7319L44.3036 12.6997L44.2328 12.689L44.0706 12.6625L43.9599 12.6433L43.8394 12.6235L43.6862 12.597L43.6072 12.5832L43.4147 12.547L43.3767 12.541L43.1455 12.4967H43.1441L42.9157 12.4525L42.8733 12.444L42.6873 12.4061L42.6845 12.4043L42.4716 12.3601L42.4585 12.3572L42.3343 12.3303L42.2301 12.3077L42.0651 12.2708L42.0009 12.2563L41.7973 12.2092L41.7742 12.2028L41.5458 12.1487L41.5296 12.1451L41.3191 12.0931L41.2618 12.0786L41.0924 12.0357L40.9947 12.0099L40.9426 11.996L40.7621 11.9482L40.728 11.939L40.6386 11.9153L40.4609 11.8657L40.4119 11.8519L40.1945 11.7892L40.1855 11.7878L39.9595 11.7205L39.9278 11.7113L39.7335 11.6529L39.6621 11.6306L39.5075 11.5832L39.4747 11.5725L39.306 11.5191L39.2797 11.5109L39.1283 11.4613L39.1193 11.4582L38.8881 11.3827L38.8619 11.3742L38.8277 11.3629L38.601 11.2843L38.5948 11.2825L38.374 11.2057L38.3287 11.1894L38.1466 11.1246L38.0603 11.0934L37.9195 11.0407L37.7932 10.9943L37.6928 10.956L37.5247 10.8926L37.4647 10.8696L37.257 10.7889L37.2363 10.7804L37.0078 10.6887L36.9871 10.6812L36.9409 10.6621L36.718 10.5715L36.5499 10.5017L36.4478 10.4592L36.4219 10.4475L36.1845 10.347L36.1704 10.3402C35.9927 10.2631 35.8122 10.1844 35.6321 10.1033L35.6269 10.1005L35.394 9.99499L35.3591 9.97835L35.1614 9.8877L35.0855 9.85087L35.0268 9.82361L34.8384 9.73402L34.7822 9.70746L34.5858 9.61291L34.5337 9.58671L34.4592 9.55094L34.257 9.44932C33.9854 9.31582 33.7128 9.1763 33.4381 9.03218L33.3905 9.00774C32.3674 8.4695 31.3181 7.86752 30.2314 7.19508V0C31.3253 0 32.4178 0.317987 33.4181 0.955378Z" fill="#9D2E20"/>
<path fill-rule="evenodd" clip-rule="evenodd" d="M8.12642 50.2941C10.4832 53.8794 13.4035 57.0182 16.4998 59.9916C19.7175 63.0373 23.0701 65.8574 26.4963 68.6481C27.506 69.5121 28.9304 70.0004 30.2399 70.0004V62.7434C27.6533 60.6662 24.7047 58.1889 22.2734 55.9275C19.6029 53.3925 16.9266 50.6868 14.7489 47.6694C14.3176 47.071 13.693 46.748 12.9677 46.748H9.9632C9.12297 46.748 8.40178 47.1932 8.00737 47.9548C7.61262 48.7165 7.65644 49.5788 8.12642 50.2941Z" fill="#449E9C"/>
<path fill-rule="evenodd" clip-rule="evenodd" d="M27.0467 0.955378L26.7306 1.15616L26.7241 1.16005L26.4042 1.35906L26.1582 1.51026L26.0874 1.55382L26.0019 1.60552L25.9187 1.65615L25.6927 1.79107L25.5781 1.85906L25.3563 1.98937L25.2293 2.06267L25.0523 2.16429L24.8611 2.27265L24.8456 2.28257L24.585 2.42846L24.5405 2.45289L24.2379 2.61826L23.9367 2.78009L23.8928 2.8031L23.6361 2.9366L23.6109 2.9497C21.31 4.12569 19.1817 4.90189 16.6692 5.4504L16.4432 5.49643L16.2879 5.52688C13.0188 6.15719 9.6765 6.23049 6.35663 6.20995H6.29279L5.85042 6.20358C4.33248 6.18375 3.02054 6.74395 1.96464 7.86115L1.9153 7.91462L1.8663 7.96809L1.81937 8.02014L1.77278 8.07432L1.72654 8.1285L1.68203 8.18339L1.63717 8.23757L1.59404 8.29245L1.5516 8.34734L1.5095 8.40399L1.46913 8.45959L1.4291 8.51625H1.42841L1.38907 8.57255L1.35111 8.62991L1.31316 8.68799L1.27589 8.74571L1.24 8.80378L1.20446 8.86185L1.1703 8.92134L1.13752 8.98013L1.10405 9.03961L1.07127 9.09981L1.0409 9.1593L1.01053 9.22056L0.980514 9.28147L0.951529 9.34273L0.924269 9.40434L0.897353 9.46631L0.870438 9.52793L0.845249 9.5906L0.821439 9.65328H0.820059L0.79694 9.71596L0.77382 9.78005L0.751391 9.84344L0.729997 9.90753L0.709983 9.97233L0.69066 10.0364L0.671336 10.1012L0.653392 10.1667L0.635449 10.2326L0.619231 10.2988L0.603703 10.3647L0.589555 10.4316L0.574718 10.4989L0.56195 10.5651L0.549183 10.6331L0.538141 10.7011L0.528479 10.7691H0.527099L0.518127 10.8378L0.509155 10.9072L0.500184 10.9752L0.494318 11.0446L0.487416 11.114L0.48155 11.1848H0.48086L0.477064 11.2545H0.476374L0.472578 11.3254L0.469818 11.3955L0.466712 11.4674L0.466022 11.5382L0.465332 11.6101V11.6816L0.466022 11.7535L0.468093 11.8268L0.470508 11.8983L0.533655 13.3438L0.537451 13.4157L0.596802 14.7528C0.677892 16.5056 0.762088 18.2588 0.859396 20.0102C0.926339 21.2152 1.89528 22.1546 3.07195 22.1546H5.44359C6.07402 22.1546 6.61612 21.916 7.05055 21.4471C7.4843 20.9786 7.68927 20.411 7.65752 19.7644C7.59576 18.5275 7.65304 17.2811 8.15131 16.2028C8.77381 14.8551 9.92357 13.8009 11.3966 13.3303V13.3293L11.5229 13.2921L11.6496 13.2577L11.7776 13.2266L11.9077 13.1982C14.5654 12.6869 16.8918 12.6997 19.7031 11.9482L19.7379 11.939L19.8269 11.9153L20.004 11.8657L20.0533 11.8519L20.271 11.7892L20.2793 11.7878L20.5053 11.7205L20.5364 11.7113L20.7313 11.6529L20.7455 11.649L20.9091 11.5987L20.9908 11.5725L21.1599 11.5191L21.1851 11.5109C22.8011 10.9826 24.4059 10.3477 25.9318 9.58671L26.0057 9.55094L26.2086 9.44932C26.4794 9.31582 26.7524 9.1763 27.0267 9.03218L27.0743 9.00774C28.0975 8.4695 29.1468 7.86752 30.2327 7.19508V0C29.1395 0 28.0471 0.317987 27.0467 0.955378Z" fill="#449E9C"/>
<path d="M9.82159 43.0036H5.39613L0 25.9059H5.53795L7.83367 34.9647L10.9575 25.8574H14.7916L17.9158 34.9647L20.1639 25.9059H25.5835L20.1404 43.0036H15.8092L12.8509 34.0663L9.82159 43.0036Z" fill="#449E9C"/>
<path d="M26.7992 37.2969C27.5883 37.2969 28.2667 37.5883 28.8347 38.1713C29.4027 38.7216 29.6867 39.4178 29.6867 40.26C29.6867 41.0859 29.4027 41.7903 28.8347 42.3732C28.2667 42.9561 27.5883 43.2476 26.7992 43.2476C26.0103 43.2476 25.324 42.9561 24.7401 42.3732C24.1722 41.7903 23.8882 41.0859 23.8882 40.26C23.8882 39.4341 24.1722 38.7379 24.7401 38.1713C25.3081 37.5883 25.9945 37.2969 26.7992 37.2969Z" fill="#449E9C"/>
<path d="M36.6293 42.9069H31.541V25.9062H36.6293V42.9069Z" fill="#449E9C"/>
<path d="M41.3768 37.2969C42.166 37.2969 42.8443 37.5883 43.4123 38.1713C43.9803 38.7216 44.2643 39.4178 44.2643 40.26C44.2643 41.0859 43.9803 41.7903 43.4123 42.3732C42.8443 42.9561 42.166 43.2476 41.3768 43.2476C40.588 43.2476 39.9016 42.9561 39.3178 42.3732C38.7498 41.7903 38.4658 41.0859 38.4658 40.26C38.4658 39.4341 38.7498 38.7379 39.3178 38.1713C39.8858 37.5883 40.5721 37.2969 41.3768 37.2969Z" fill="#449E9C"/>
<path d="M54.3282 43.2469C51.6146 43.2469 49.3503 42.4293 47.536 40.794C45.7375 39.1425 44.8379 37.0132 44.8379 34.4067C44.8379 31.7997 45.7295 29.6786 47.5125 28.0434C49.2796 26.3922 51.5356 25.5664 54.2809 25.5664C55.9217 25.5664 57.3182 25.8656 58.47 26.4648V31.395C57.1288 30.6503 55.7799 30.2778 54.4231 30.2778C53.1609 30.2778 52.1195 30.6747 51.2989 31.4679C50.4787 32.2452 50.0684 33.2246 50.0684 34.4067C50.0684 35.6209 50.4942 36.6166 51.3462 37.3939C52.214 38.1549 53.3027 38.5355 54.6122 38.5355C56.2216 38.5355 57.5863 38.1304 58.7068 37.3209V42.3241C57.5549 42.9392 56.0953 43.2469 54.3282 43.2469Z" fill="#449E9C"/>
</svg>
