<svg width="40" height="40" viewBox="0 0 40 40" fill="none" xmlns="http://www.w3.org/2000/svg">
<path d="M6.38643 18.4912L18.9743 5.90216C19.1696 5.70685 19.4353 5.59646 19.7118 5.59646L33.1935 5.59646C34.1227 5.59646 34.5884 6.71967 33.931 7.37584C30.0812 11.2294 21.3128 20.0013 21.3128 20.0013C21.3128 20.0013 30.0824 28.7709 33.931 32.6244C34.5885 33.2806 34.1227 34.4038 33.1935 34.4038L19.7117 34.4038C19.4352 34.4038 19.1696 34.2934 18.9742 34.0982L13.2613 28.3852L6.38635 21.5115C5.55315 20.6769 5.55315 19.3258 6.38643 18.4912Z" fill="#0EDBFF"/>
<path d="M14.2705 18.4912L26.8584 5.90216C27.0537 5.70685 27.3193 5.59646 27.5959 5.59646L33.1935 5.59646C34.1227 5.59646 34.5884 6.71967 33.931 7.37584C30.0812 11.2294 21.3128 20.0013 21.3128 20.0013C21.3128 20.0013 30.0824 28.7709 33.931 32.6244C34.5885 33.2806 34.1227 34.4038 33.1935 34.4038L27.5958 34.4038C27.3192 34.4038 27.0536 34.2934 26.8583 34.0982L14.2704 21.5115C13.4372 20.6769 13.4372 19.3258 14.2705 18.4912Z" fill="#337775"/>
<path d="M14.2704 18.4911L26.8583 5.902C27.0536 5.70669 27.3192 5.5963 27.5958 5.5963L30.8755 5.5963C30.599 5.5963 30.3333 5.70669 30.138 5.902L17.1862 18.855C16.3529 19.6895 16.3529 20.3129 17.1862 21.1474L30.138 34.0979C30.3333 34.2933 30.599 34.4036 30.8755 34.4036L27.5958 34.4036C27.3192 34.4036 27.0536 34.2932 26.8582 34.0979L14.2704 21.5113C13.4371 20.6768 13.4371 19.3256 14.2704 18.4911Z" fill="#265958"/>
</svg>
