<svg width="40" height="40" viewBox="0 0 40 40" fill="none" xmlns="http://www.w3.org/2000/svg">
<path d="M33.6137 21.5088L21.0258 34.0978C20.8305 34.2931 20.5649 34.4035 20.2883 34.4035H6.80658C5.87744 34.4035 5.41174 33.2803 6.06908 32.6242C9.91893 28.7706 18.6873 19.9987 18.6873 19.9987C18.6873 19.9987 9.91775 11.2291 6.06908 7.37557C5.41166 6.71939 5.87744 5.59619 6.80658 5.59619H20.2884C20.5649 5.59619 20.8306 5.70658 21.0259 5.90182L26.7388 11.6148L33.6138 18.4885C34.447 19.3231 34.447 20.6742 33.6137 21.5088Z" fill="#0EDBFF"/>
<path d="M25.7296 21.5088L13.1417 34.0978C12.9464 34.2931 12.6808 34.4035 12.4042 34.4035H6.80658C5.87744 34.4035 5.41174 33.2803 6.06908 32.6242C9.91893 28.7706 18.6873 19.9987 18.6873 19.9987C18.6873 19.9987 9.91775 11.2291 6.06908 7.37557C5.41166 6.71939 5.87744 5.59619 6.80658 5.59619H12.4043C12.6809 5.59619 12.9465 5.70658 13.1418 5.90182L25.7297 18.4885C26.5629 19.3231 26.5629 20.6742 25.7296 21.5088Z" fill="#337775"/>
<path d="M25.7298 21.5089L13.1419 34.098C12.9466 34.2933 12.681 34.4037 12.4044 34.4037H9.12463C9.4012 34.4037 9.66682 34.2933 9.86213 34.098L22.8139 21.145C23.6472 20.3105 23.6472 19.6871 22.8139 18.8526L9.86213 5.90206C9.66682 5.70675 9.4012 5.59644 9.12463 5.59644H12.4044C12.681 5.59644 12.9466 5.70683 13.1419 5.90206L25.7298 18.4887C26.5631 19.3232 26.5631 20.6744 25.7298 21.5089Z" fill="#265958"/>
</svg>
