<svg width="101" height="101" viewBox="0 0 101 101" fill="none" xmlns="http://www.w3.org/2000/svg">
<g clip-path="url(#clip0_317_1128)">
<path d="M48.0765 2.16455C33.4113 2.16455 20.2895 8.76398 11.5119 19.1522L18.0152 87.2437C26.2313 93.8867 36.6881 97.8677 48.0765 97.8677C74.504 97.8677 95.9281 76.4436 95.9281 50.0161C95.9281 23.5887 74.504 2.16455 48.0765 2.16455Z" fill="#A2B9BD"/>
<path d="M46.3869 35.9023H87.5955V73.9417H46.3869V35.9023Z" fill="#265958"/>
<path d="M46.3869 61.3452H87.5955V73.9429H46.3869V61.3452Z" fill="#2D6866"/>
<path d="M84.57 40.3389H90.6224V69.3969H84.57V40.3389Z" fill="#E6EEEE"/>
<path d="M70.8332 40.3389H76.8856V69.3969H70.8332V40.3389Z" fill="#E6EEEE"/>
<path d="M57.0969 40.3389H63.15V69.3969H57.0969V40.3389Z" fill="#E6EEEE"/>
<path d="M43.3605 40.3389H49.4129V69.3969H43.3605V40.3389Z" fill="#E6EEEE"/>
<path d="M87.5961 63.4589C85.9245 63.4589 84.5695 62.1039 84.5695 60.4331V69.3969H90.6227V60.4331C90.6227 62.1039 89.2677 63.4589 87.5961 63.4589Z" fill="#80AAA9"/>
<path d="M73.8598 63.4589C72.1882 63.4589 70.8332 62.1039 70.8332 60.4331V69.3969H76.8856V60.4331C76.8856 62.1039 75.5306 63.4589 73.8598 63.4589Z" fill="#80AAA9"/>
<path d="M60.1234 63.4589C58.4518 63.4589 57.0969 62.1039 57.0969 60.4331V69.3969H63.15V60.4331C63.15 62.1039 61.795 63.4589 60.1234 63.4589Z" fill="#80AAA9"/>
<path d="M46.3871 63.4589C44.7155 63.4589 43.3605 62.1039 43.3605 60.4331V69.3969H49.4129V60.4331C49.4129 62.1039 48.058 63.4589 46.3871 63.4589Z" fill="#80AAA9"/>
<path d="M90.2764 68.6216H84.916C83.857 68.6216 82.9987 69.4799 82.9987 70.5388V73.6432H92.1937V70.5388C92.1937 69.4799 91.3354 68.6216 90.2764 68.6216Z" fill="#449E9C"/>
<path d="M76.5396 68.6216H71.1799C70.121 68.6216 69.2619 69.4799 69.2619 70.5388V73.6432H78.4576V70.5388C78.4576 69.4799 77.5985 68.6216 76.5396 68.6216Z" fill="#449E9C"/>
<path d="M62.8037 68.6216H57.4433C56.3844 68.6216 55.5261 69.4799 55.5261 70.5388V73.6432H64.721V70.5388C64.721 69.4799 63.8627 68.6216 62.8037 68.6216Z" fill="#449E9C"/>
<path d="M49.0669 68.6216H43.7073C42.6476 68.6216 41.7892 69.4799 41.7892 70.5388V73.6432H50.985V70.5388C50.985 69.4799 50.1259 68.6216 49.0669 68.6216Z" fill="#449E9C"/>
<path d="M90.2763 40.9255H84.9159C83.857 40.9255 82.9987 40.0665 82.9987 39.0075V35.9023H92.1936V39.0075C92.1936 40.0665 91.3353 40.9255 90.2763 40.9255Z" fill="#449E9C"/>
<path d="M76.5396 40.9255H71.1799C70.121 40.9255 69.2619 40.0665 69.2619 39.0075V35.9023H78.4576V39.0075C78.4576 40.0665 77.5985 40.9255 76.5396 40.9255Z" fill="#449E9C"/>
<path d="M62.8037 40.9255H57.4433C56.3843 40.9255 55.526 40.0665 55.526 39.0075V35.9023H64.7209V39.0075C64.7209 40.0665 63.8626 40.9255 62.8037 40.9255Z" fill="#449E9C"/>
<path d="M49.0669 40.9255H43.7073C42.6476 40.9255 41.7892 40.0665 41.7892 39.0075V35.9023H50.985V39.0075C50.985 40.0665 50.1259 40.9255 49.0669 40.9255Z" fill="#449E9C"/>
<path d="M93.2623 73.2573H40.7209C39.446 73.2573 38.4031 74.301 38.4031 75.5751V78.4728H95.5801V75.5751C95.5801 74.3003 94.5371 73.2573 93.2623 73.2573Z" fill="#337775"/>
<path d="M64.3516 73.2573H40.7211C39.4455 73.2573 38.4025 74.301 38.4025 75.5751V78.4728H62.0338V75.5751C62.0338 74.301 63.0767 73.2573 64.3516 73.2573Z" fill="#265958"/>
<path d="M67.6667 20.9474C67.2501 20.7018 66.7336 20.7018 66.3171 20.9474L40.3283 36.2894H93.6547L67.6667 20.9474Z" fill="#337775"/>
<path d="M61.0075 24.0815L40.3288 36.2893H64.3423C57.665 36.2893 55.258 27.4759 61.0075 24.0815Z" fill="#265958"/>
<path d="M66.9912 14.9287L36.6979 32.8128L40.328 36.2895L66.3168 20.9475C66.5251 20.8247 66.7578 20.7629 66.9912 20.7629C67.2247 20.7629 67.4581 20.8247 67.6657 20.9475L93.6544 36.2895L97.2845 32.8128L66.9912 14.9287Z" fill="#449E9C"/>
<path d="M97.2851 83.4952H36.6978C35.2573 83.4952 34.09 82.3279 34.09 80.8875C34.09 79.4471 35.2573 78.2798 36.6978 78.2798H97.2843C98.7247 78.2798 99.8928 79.4471 99.8928 80.8875C99.8928 82.3279 98.7247 83.4952 97.2851 83.4952Z" fill="#449E9C"/>
<path d="M58.5041 80.8875C58.5041 79.4471 59.6714 78.2798 61.1118 78.2798H36.6978C35.2573 78.2798 34.09 79.4471 34.09 80.8875C34.09 82.3279 35.2573 83.4952 36.6978 83.4952H61.1118C59.6714 83.4952 58.5041 82.3279 58.5041 80.8875Z" fill="#337775"/>
<path d="M40.3288 36.2895L61.0075 24.0817C61.0059 24.0817 58.6279 23.9848 58.9391 21.6265C58.9781 21.3305 58.7942 21.0551 58.5127 20.9567C58.2449 20.8636 57.9199 20.7064 57.6338 20.4531L36.6979 32.8127L40.3288 36.2895Z" fill="#337775"/>
<path d="M99.2747 30.9718L67.9911 12.5041C67.9866 12.501 67.982 12.498 67.9774 12.4957C67.9126 12.4774 67.0275 11.8983 65.9922 12.5025L34.7079 30.971C33.7893 31.5135 33.4841 32.6983 34.0266 33.6169C34.3867 34.2272 35.0306 34.5668 35.6913 34.5668C36.0255 34.5668 36.3635 34.4805 36.6717 34.2982L66.9917 16.3996L97.3109 34.2982C97.6191 34.4805 97.9571 34.5668 98.2913 34.5668C98.952 34.5668 99.5959 34.2272 99.956 33.6169C100.498 32.6983 100.193 31.5135 99.2747 30.9718Z" fill="#80AAA9"/>
<path d="M58.5116 20.9564C57.7449 20.6893 56.4891 19.9127 57.1032 17.7505L34.7079 30.9715C33.7893 31.5139 33.4841 32.698 34.0266 33.6166C34.3867 34.2269 35.0306 34.5664 35.6913 34.5664C36.0255 34.5664 36.3635 34.4802 36.6717 34.2979L58.8412 21.2112C58.7649 21.096 58.6505 21.0044 58.5116 20.9564Z" fill="#449E9C"/>
<path d="M49.2884 51.8511L44.0669 46.6296C43.2513 45.814 41.9566 45.7507 41.1189 46.4861C40.1736 47.317 40.1667 48.7376 41.0159 49.5875L42.5929 51.1645C42.5974 51.1691 42.6112 51.182 42.6013 51.2057C42.5913 51.2293 42.5723 51.2293 42.5662 51.2293H34.4241C33.2705 51.2293 32.31 52.1006 32.2382 53.2122C32.1566 54.468 33.1568 55.4781 34.3577 55.4781H42.5662C42.5723 55.4781 42.5913 55.4781 42.6013 55.501C42.6112 55.5247 42.5974 55.5384 42.5929 55.543L41.0624 57.0735C40.2461 57.889 40.1835 59.1837 40.9197 60.0215C41.7491 60.966 43.1704 60.9744 44.0203 60.1245L49.2884 54.8556C50.117 54.027 50.117 52.6797 49.2884 51.8511Z" fill="#0EDBFF"/>
<path d="M49.2884 51.8511L46.3641 48.9268C46.3076 50.3397 45.1479 51.4689 43.7205 51.4689C43.3169 51.4689 42.9362 51.3758 42.5936 51.2141C42.5837 51.2255 42.5715 51.2293 42.5662 51.2293H34.4241C33.2705 51.2293 32.31 52.0998 32.2382 53.2122C32.1566 54.468 33.1568 55.4774 34.3577 55.4774H42.5662C42.5723 55.4774 42.5913 55.4774 42.6013 55.501C42.6112 55.5247 42.5974 55.5376 42.5929 55.5422L41.0624 57.0727C40.2468 57.889 40.1843 59.1837 40.9197 60.0214C41.7491 60.9652 43.1704 60.9736 44.0203 60.1237L49.2884 54.8556C50.117 54.027 50.117 52.6797 49.2884 51.8511Z" fill="#06A49F"/>
<path d="M10.5237 20.3574C4.07535 28.5109 0.224792 38.8136 0.224792 50.0159C0.224792 50.5934 0.238525 51.1672 0.259125 51.7394C6.06815 57.733 15.4096 59.2619 22.9673 54.8987C31.8875 49.7489 34.9431 38.3429 29.7933 29.4234C25.7856 22.4814 17.9891 19.0924 10.5237 20.3574Z" fill="#FFD47C"/>
<path d="M22.3531 53.7684C22.4057 53.6624 22.3386 53.5342 22.2211 53.5151C21.8312 53.4526 21.4711 53.2214 21.2583 52.8521C21.0645 52.5164 21.0302 52.1327 21.1316 51.7878C21.1652 51.6734 21.079 51.5635 20.96 51.559C20.2764 51.5361 19.6202 51.1668 19.2617 50.5221C18.8771 49.8309 18.9527 48.9856 19.3898 48.3668C19.3891 48.3668 19.3891 48.3668 19.3883 48.3668C16.4434 47.8595 16.6303 45.267 16.6303 45.267L16.4815 44.1012H10.687V32.2291H9.38693C7.30182 31.129 8.03958 29.0423 8.03958 29.0423V28.9973C7.3392 29.0049 6.64874 28.6517 6.27109 28.0215C6.11697 27.7644 6.03 27.4875 5.99872 27.209C2.31677 33.9892 0.224792 41.759 0.224792 50.0163C0.224792 50.5938 0.238525 51.1683 0.259125 51.7413C5.91861 57.5801 14.9305 59.1792 22.379 55.2234C22.1265 54.7557 22.1318 54.214 22.3531 53.7684Z" fill="#FFB874"/>
<path d="M6.99527 25.4695C3.4209 31.4387 1.11148 38.2518 0.434753 45.5394C0.54538 45.7522 0.65982 45.9643 0.781128 46.1741C4.87582 53.2664 13.9769 55.7055 21.0692 51.6108C28.1615 47.5161 30.6006 38.4143 26.5059 31.322C22.5592 24.4868 13.9624 21.976 6.99527 25.4695ZM19.2466 48.4538C13.8953 51.5429 7.02731 49.7035 3.93817 44.3515C0.848266 39.0002 2.68848 32.133 8.03973 29.0431C13.391 25.9532 20.259 27.7934 23.3489 33.1446C26.438 38.4967 24.5978 45.3639 19.2466 48.4538Z" fill="#FFF084"/>
<path d="M19.2618 50.5226C18.878 49.8306 18.9521 48.9853 19.3885 48.3666C19.3404 48.3955 19.2946 48.4253 19.2465 48.4535C13.8953 51.5427 7.02731 49.7032 3.93817 44.3512C0.848266 38.9999 2.68848 32.1327 8.03973 29.0428C8.06949 29.0253 8.10077 29.01 8.13129 28.9932C7.39963 29.0344 6.66492 28.6789 6.27124 28.022C6.11713 27.7649 6.03015 27.4879 5.99887 27.2095C2.98984 32.7492 1.04663 38.9511 0.434753 45.5391C0.54538 45.752 0.65982 45.9641 0.781128 46.1739C4.87582 53.2661 13.9769 55.7053 21.0692 51.6106C21.0707 51.6098 21.0723 51.6083 21.0738 51.6075C21.0425 51.5808 21.0051 51.5602 20.9601 51.5587C20.2765 51.5358 19.6204 51.1673 19.2618 50.5226Z" fill="#FFD47C"/>
<path d="M12.2746 32.4717V31.2304C12.2746 30.4331 11.6284 29.7861 10.8311 29.7861C10.0339 29.7861 9.3869 30.4323 9.3869 31.2304V32.4717H12.2746Z" fill="#FF9165"/>
<path d="M9.3869 45.0249V46.2662C9.3869 47.0635 10.0339 47.7097 10.8311 47.7097C11.6284 47.7097 12.2746 47.0635 12.2746 46.2662V45.0249H9.3869Z" fill="#FF9165"/>
<path d="M15.1859 35.1168C14.3886 35.1168 13.7424 34.4706 13.7424 33.6733V31.2304C13.7424 30.4331 14.3886 29.7861 15.1859 29.7861C15.9831 29.7861 16.6301 30.4323 16.6301 31.2304V33.6733C16.6301 34.4706 15.9839 35.1168 15.1859 35.1168Z" fill="#FF9165"/>
<path d="M15.1859 47.7096C14.3886 47.7096 13.7424 47.0634 13.7424 46.2661V43.8232C13.7424 43.0259 14.3886 42.3789 15.1859 42.3789C15.9831 42.3789 16.6301 43.0259 16.6301 43.8232V46.2661C16.6301 47.0634 15.9839 47.7096 15.1859 47.7096Z" fill="#FF9165"/>
<path d="M11.8627 18.7373C10.922 19.826 10.0301 20.9582 9.18933 22.1285C16.5258 20.1647 24.5694 23.263 28.5428 30.1455C33.2868 38.3616 30.4616 48.9047 22.2455 53.6486C14.8038 57.9455 5.45245 56.032 0.230896 49.5272C0.22937 49.6905 0.224792 49.853 0.224792 50.0163C0.224792 51.3041 0.277435 52.579 0.37738 53.8409C6.67239 59.3653 16.0436 60.5631 23.6898 56.1488C33.2845 50.6098 36.5834 38.2968 31.0437 28.702C27.0154 21.7242 19.4051 18.0781 11.8627 18.7373Z" fill="#FFB874"/>
<path d="M22.3989 55.2619C22.1242 54.7858 22.1257 54.2266 22.3531 53.768C22.3828 53.7085 22.3722 53.6437 22.3378 53.5933C22.3073 53.6109 22.2768 53.6299 22.2455 53.6483C14.8038 57.9451 5.45245 56.0317 0.230896 49.5269C0.22937 49.6901 0.224792 49.8526 0.224792 50.0159C0.224792 51.3037 0.277435 52.5786 0.37738 53.8405C6.67239 59.365 16.0436 60.5628 23.6898 56.1484C23.7455 56.1164 23.8011 56.082 23.8568 56.0492C23.2801 56.0813 22.7071 55.7959 22.3989 55.2619Z" fill="#FFA46D"/>
<path d="M19.4449 38.2349C19.7974 37.6413 20.0004 36.9493 20.0004 36.2108C20.0004 34.015 18.2143 32.229 16.0186 32.229H9.01328C8.216 32.229 7.56903 32.876 7.56903 33.6732C7.56903 34.4705 8.216 35.1167 9.01328 35.1167H16.0186C16.6221 35.1167 17.1126 35.6073 17.1126 36.2108C17.1126 36.8135 16.6221 37.3041 16.0186 37.3041H10.8687C10.0715 37.3041 9.42526 37.9503 9.42526 38.7483C9.42526 39.5456 10.0715 40.1918 10.8687 40.1918H16.8906C17.4941 40.1918 17.9847 40.6824 17.9847 41.2859C17.9847 41.8886 17.4941 42.3792 16.8906 42.3792H9.01328C8.216 42.3792 7.56903 43.0261 7.56903 43.8234C7.56903 44.6207 8.216 45.2669 9.01328 45.2669H16.8906C19.0864 45.2669 20.8724 43.4808 20.8724 41.2859C20.8724 40.0621 20.317 38.9658 19.4449 38.2349Z" fill="#FFA46D"/>
<path d="M13.8951 37.3047H10.8685C10.0713 37.3047 9.42506 37.9509 9.42506 38.7482C9.42506 39.5454 10.0713 40.1917 10.8685 40.1917H13.8951C13.0979 40.1917 12.4516 39.5454 12.4516 38.7482C12.4516 37.9509 13.0979 37.3047 13.8951 37.3047Z" fill="#FF9165"/>
<path d="M9.01328 35.1167H13.8053C13.0073 35.1167 12.3611 34.4705 12.3611 33.6732C12.3611 32.876 13.0073 32.229 13.8053 32.229H9.01328C8.216 32.229 7.56903 32.876 7.56903 33.6732C7.56903 34.4705 8.216 35.1167 9.01328 35.1167Z" fill="#FF9165"/>
<path d="M12.3618 43.8234C12.3618 43.0261 13.008 42.3799 13.8053 42.3799H9.01328C8.216 42.3799 7.56903 43.0261 7.56903 43.8234C7.56903 44.6206 8.216 45.2668 9.01328 45.2668H13.8053C13.008 45.2668 12.3618 44.6206 12.3618 43.8234Z" fill="#FF9165"/>
<path d="M9.38687 34.875H12.2746V42.6219H9.38687V34.875Z" fill="#FF9165"/>
<path d="M4.31851 51.9212C2.87884 52.752 1.59253 53.7477 0.467957 54.8684C1.73672 67.4691 7.89593 78.6264 17.0176 86.4168C19.057 86.0414 21.0688 85.3181 22.967 84.2218C31.8866 79.0719 34.9429 67.6667 29.7931 58.7472C24.6432 49.8269 13.238 46.7714 4.31851 51.9212Z" fill="#FFD47C"/>
<path d="M22.3529 83.092C22.4055 82.986 22.3384 82.8578 22.2209 82.8387C21.831 82.7754 21.4709 82.545 21.2581 82.1757C21.0643 81.84 21.0299 81.4563 21.1314 81.1114C21.165 80.997 21.0788 80.8871 20.9597 80.8825C20.2762 80.8596 19.62 80.4904 19.2614 79.8457C18.8769 79.1545 18.9525 78.3091 19.3896 77.6904C19.3889 77.6904 19.3889 77.6904 19.3881 77.6904C16.4431 77.183 16.6301 74.5906 16.6301 74.5906L16.4813 73.4248H10.6868V61.5527H9.38672C7.30161 60.4525 8.03937 58.3667 8.03937 58.3667V58.3209C7.33899 58.3285 6.64853 57.9753 6.27087 57.3451C5.89169 56.7126 5.90009 55.9604 6.22205 55.3561C6.27774 55.2516 6.2251 55.1219 6.10989 55.0937C5.76047 55.009 5.44537 54.7877 5.25159 54.452C5.03873 54.0828 5.01813 53.6555 5.15851 53.2855C5.20123 53.1749 5.12418 53.0528 5.00516 53.0452C4.49933 53.0139 4.01791 52.7385 3.74173 52.27C2.53323 53.0261 1.43994 53.9004 0.467957 54.8694C1.73672 67.4693 7.89594 78.625 17.0161 86.4154C18.8472 86.0789 20.6546 85.4617 22.3788 84.5462C22.1263 84.0785 22.1316 83.5376 22.3529 83.092Z" fill="#FFB874"/>
<path d="M6.21698 55.2096C4.14865 56.4036 2.47858 58.0256 1.24872 59.8979C1.64468 61.7846 2.15051 63.6302 2.76163 65.4277C3.46048 62.5537 5.28238 59.9581 8.03964 58.3667C13.3917 55.2767 20.2589 57.117 23.3488 62.4682C26.4387 67.8202 24.5985 74.6874 19.2465 77.7774C16.2138 79.5283 12.6943 79.6946 9.65097 78.5365C10.7916 80.07 12.0207 81.5325 13.3322 82.9173C15.959 82.9768 18.6323 82.3413 21.0691 80.9344C28.1614 76.8397 30.6005 67.7378 26.5058 60.6456C22.4111 53.5533 13.3093 51.1149 6.21698 55.2096Z" fill="#FFF084"/>
<path d="M19.2613 79.8452C18.8776 79.154 18.9516 78.3079 19.388 77.6899C19.3399 77.7182 19.2941 77.7487 19.2461 77.7769C16.2134 79.5279 12.6939 79.6942 9.65057 78.536C10.7904 80.0696 12.0203 81.5321 13.3318 82.9168C15.9586 82.9764 18.6319 82.3408 21.0687 80.934C21.0703 80.9332 21.0718 80.9317 21.0733 80.9309C21.042 80.9042 21.0046 80.8836 20.9596 80.8821C20.276 80.8592 19.6199 80.4899 19.2613 79.8452Z" fill="#FFD47C"/>
<path d="M2.76163 65.4276C3.46048 62.5536 5.28238 59.9581 8.03964 58.3666C8.07016 58.3491 8.10068 58.3338 8.1312 58.317C7.4003 58.3575 6.66559 58.0027 6.27115 57.345C5.89197 56.7126 5.90036 55.9603 6.22232 55.356C6.24902 55.3057 6.24979 55.2492 6.23148 55.2012C6.2269 55.2042 6.22156 55.2065 6.21698 55.2096C4.14865 56.4036 2.47858 58.0256 1.24872 59.8978C1.64468 61.7846 2.15051 63.6301 2.76163 65.4276Z" fill="#FFD47C"/>
<path d="M12.2746 61.7949V60.5536C12.2746 59.7563 11.6284 59.1094 10.8311 59.1094C10.0339 59.1094 9.3869 59.7556 9.3869 60.5536V61.7949H12.2746Z" fill="#FF9165"/>
<path d="M9.38687 74.3486V75.5892C9.38687 76.3864 10.0338 77.0334 10.8311 77.0334C11.6284 77.0334 12.2746 76.3864 12.2746 75.5892V74.3486H9.38687Z" fill="#FF9165"/>
<path d="M15.1859 64.44C14.3886 64.44 13.7424 63.7938 13.7424 62.9966V60.5536C13.7424 59.7563 14.3886 59.1094 15.1859 59.1094C15.9831 59.1094 16.6301 59.7556 16.6301 60.5536V62.9966C16.6301 63.7938 15.9839 64.44 15.1859 64.44Z" fill="#FF9165"/>
<path d="M15.1859 77.0333C14.3886 77.0333 13.7424 76.3871 13.7424 75.5898V73.1469C13.7424 72.3496 14.3886 71.7026 15.1859 71.7026C15.9831 71.7026 16.6301 72.3496 16.6301 73.1469V75.5898C16.6301 76.3871 15.9839 77.0333 15.1859 77.0333Z" fill="#FF9165"/>
<path d="M3.59677 50.6708C2.40659 51.3583 1.31329 52.1494 0.321472 53.0268C0.399292 54.2773 0.524414 55.5148 0.696838 56.7377C1.90686 55.353 3.36102 54.1415 5.04025 53.1718C13.2563 48.4278 23.7994 51.253 28.5426 59.4691C33.2866 67.6852 30.4614 78.2282 22.2453 82.9714C20.1396 84.1875 17.8813 84.9047 15.607 85.1626C16.5187 86.0056 17.4624 86.8144 18.4375 87.5849C20.2372 87.1432 22.005 86.4443 23.6888 85.4723C33.2835 79.9326 36.5832 67.6203 31.0435 58.0256C25.5038 48.4309 13.1915 45.1311 3.59677 50.6708Z" fill="#FFB874"/>
<path d="M0.696838 56.7375C1.90686 55.3528 3.36102 54.1412 5.04025 53.1715C5.07153 53.1532 5.10281 53.1364 5.13409 53.1189C5.1051 53.0784 5.06085 53.0479 5.00516 53.0449C4.49475 53.0128 4.00952 52.7343 3.7341 52.2583C3.4129 51.7021 3.47012 51.033 3.82336 50.5439C3.74707 50.5859 3.67154 50.6271 3.59677 50.6706C2.40659 51.358 1.31329 52.1499 0.321472 53.0273C0.399292 54.2778 0.525177 55.5153 0.696838 56.7375Z" fill="#FFA46D"/>
<path d="M22.399 84.5855C22.1244 84.1095 22.1259 83.5495 22.3532 83.0917C22.383 83.0314 22.3723 82.9673 22.338 82.917C22.3075 82.9345 22.2769 82.9536 22.2457 82.9712C20.1407 84.1873 17.8824 84.9044 15.6081 85.1623C16.5198 86.0054 17.4628 86.8141 18.4386 87.5847C20.2384 87.1429 22.0061 86.4441 23.6899 85.4721C23.7456 85.4393 23.8013 85.4057 23.857 85.3729C23.2802 85.4049 22.7072 85.1196 22.399 84.5855Z" fill="#FFA46D"/>
<path d="M19.4445 67.5586C19.7969 66.965 19.9999 66.273 19.9999 65.5345C19.9999 63.3388 18.2138 61.5527 16.0181 61.5527H9.01279C8.21551 61.5527 7.56854 62.1997 7.56854 62.997C7.56854 63.7942 8.21551 64.4405 9.01279 64.4405H16.0181C16.6216 64.4405 17.1122 64.931 17.1122 65.5345C17.1122 66.1372 16.6216 66.6278 16.0181 66.6278H10.8683C10.071 66.6278 9.42477 67.274 9.42477 68.0713C9.42477 68.8686 10.071 69.5155 10.8683 69.5155H16.8901C17.4936 69.5155 17.9842 70.0061 17.9842 70.6096C17.9842 71.2123 17.4936 71.7029 16.8901 71.7029H9.01279C8.21551 71.7029 7.56854 72.3498 7.56854 73.1471C7.56854 73.9444 8.21551 74.5906 9.01279 74.5906H16.8901C19.0859 74.5906 20.8719 72.8046 20.8719 70.6096C20.8719 69.3858 20.3165 68.2895 19.4445 67.5586Z" fill="#FFA46D"/>
<path d="M13.8951 66.6274H10.8685C10.0712 66.6274 9.42499 67.2737 9.42499 68.0709C9.42499 68.8682 10.0712 69.5152 10.8685 69.5152H13.8951C13.0978 69.5152 12.4516 68.8682 12.4516 68.0709C12.4508 67.2737 13.0978 66.6274 13.8951 66.6274Z" fill="#FF9165"/>
<path d="M9.01279 64.4405H13.8048C13.0068 64.4405 12.3606 63.7942 12.3606 62.997C12.3606 62.1997 13.0068 61.5527 13.8048 61.5527H9.01279C8.21551 61.5527 7.56854 62.1997 7.56854 62.997C7.56854 63.7942 8.21551 64.4405 9.01279 64.4405Z" fill="#FF9165"/>
<path d="M12.3618 73.1469C12.3618 72.3496 13.008 71.7026 13.8053 71.7026H9.01328C8.216 71.7026 7.56903 72.3496 7.56903 73.1469C7.56903 73.9442 8.216 74.5904 9.01328 74.5904H13.8053C13.008 74.5904 12.3618 73.9442 12.3618 73.1469Z" fill="#FF9165"/>
<path d="M9.3869 64.1978H12.2746V71.9454H9.3869V64.1978Z" fill="#FF9165"/>
</g>
<defs>
<clipPath id="clip0_317_1128">
<rect width="100" height="100" fill="white" transform="translate(0.224792 0.0161133)"/>
</clipPath>
</defs>
</svg>
