<svg width="101" height="101" viewBox="0 0 101 101" fill="none" xmlns="http://www.w3.org/2000/svg">
<g clip-path="url(#clip0_317_1195)">
<path d="M93.6077 66.9602C96.156 61.1108 97.572 54.6548 97.572 47.8677C97.572 21.4402 76.1479 0.0161133 49.7204 0.0161133C47.7856 0.0161133 45.8782 0.134369 44.0029 0.357147C46.3101 5.19418 69.9543 53.856 93.6077 66.9602Z" fill="#8CA6AA"/>
<path d="M43.6275 0.34668C19.849 3.12912 1.39655 23.3417 1.39655 47.8679C1.39655 73.434 21.4466 94.3156 46.6801 95.65C69.1547 91.5569 86.195 71.8814 86.195 48.2249C86.195 23.5088 67.5938 3.14056 43.6275 0.34668Z" fill="#8CA6AA"/>
<path d="M17.1551 22.2611L14.0713 15.4336C6.20383 23.9602 1.39655 35.3509 1.39655 47.8677C1.39655 73.4338 21.4466 94.3154 46.6801 95.6498C48.5966 95.3011 50.4726 94.8357 52.3029 94.2674V79.6716L24.6372 38.7719C10.963 33.1849 17.1551 22.2611 17.1551 22.2611Z" fill="#669998"/>
<path d="M24.3237 11.9937C29.2218 10.8058 30.6042 5.87265 30.9826 3.63037C22.8428 6.99493 15.8345 12.5407 10.6846 19.5384C12.7858 20.1015 15.0563 22.2614 17.1551 22.2614C21.0301 22.2614 17.9303 13.5432 24.3237 11.9937Z" fill="#2D6866"/>
<path d="M19.9703 10.022C16.4524 12.748 13.3243 15.9515 10.6846 19.5381C12.7865 20.1012 15.0562 22.261 17.1551 22.261C20.2961 22.261 18.8549 16.5344 21.5999 13.5391C21.5351 12.3245 21.1025 11.1221 19.9703 10.022Z" fill="#2D6866"/>
<path d="M43.7373 0.358887C43.1163 1.99539 42.7654 4.18045 44.324 5.7399C47.1332 8.54904 46.8425 11.1644 45.7774 11.1644C44.7116 11.1644 42.4838 8.83972 41.2242 10.0986C39.9654 11.3582 34.444 7.7739 31.3442 15.8145C28.2443 23.8544 33.2332 22.4498 34.8308 20.8514C36.4291 19.2531 33.5719 16.1044 35.2184 16.1044C36.8655 16.1044 41.418 12.0364 42.29 16.2013C43.1621 20.367 37.5026 19.4949 38.4433 22.7885C39.384 26.0822 35.6059 24.8225 33.2813 27.1472C30.9566 29.4727 30.7628 32.7663 34.0564 36.0591C37.35 39.3527 33.6688 40.7092 31.7317 40.7092C29.7939 40.7092 24.4663 36.3498 20.1076 40.7092C15.7481 45.0679 14.5862 47.005 11.5833 50.0079C8.58033 53.0109 8.09586 64.5381 16.2326 66.4752C24.3694 68.4131 25.5473 65.5071 28.0582 69.7688C30.569 74.0314 28.7769 73.8857 31.3442 76.4529C33.5773 78.6861 32.5115 85.2451 37.1074 88.3159C38.8347 89.4695 41.1342 89.445 42.7379 88.1252C43.2163 87.7315 43.6626 87.2211 44.0013 86.5596C45.3571 83.9114 49.9423 81.1343 49.9423 75.323C49.9423 75.323 52.2029 70.2213 55.8193 68.2834C59.4356 66.3463 59.5966 61.6649 59.1129 61.1804C58.6284 60.696 54.6565 64.2802 53.3649 61.1804C52.074 58.0806 46.7944 50.0568 47.8114 49.0398C48.8284 48.022 51.4438 52.2845 52.1709 53.0109C52.8972 53.7379 56.2457 61.2102 59.3112 58.1447C62.376 55.08 65.0539 53.8829 65.0539 50.7831C65.0539 47.6833 65.4414 46.5213 67.2496 46.5213C69.0578 46.5213 72.9968 58.4537 77.4532 48.2249C81.0085 40.0645 75.4375 30.3981 83.3728 31.9415C77.3151 15.0623 62.1127 2.54395 43.7373 0.358887Z" fill="#A2B9BD"/>
<path d="M46.4174 22.7884C45.6438 19.4948 50.2985 20.3669 49.5814 16.2012C48.8642 12.0363 45.1197 16.1043 43.7655 16.1043C42.4105 16.1043 44.7611 19.2522 43.4466 20.8513C42.4555 22.056 39.8798 23.1501 39.7646 20.17C38.8102 20.7628 38.0495 21.4121 38.4432 22.7884C39.3839 26.0821 35.6058 24.8224 33.2812 27.1471C30.9565 29.4726 30.7627 32.7662 34.0563 36.059C35.1816 37.1843 35.4922 38.0839 35.3365 38.7797C37.7062 38.9162 39.8752 40.7091 40.8968 40.7091C42.4906 40.7091 45.5179 39.3526 42.8095 36.059C40.1003 32.7654 40.2598 29.4726 42.1717 27.1471C44.0844 24.8224 47.1918 26.0821 46.4174 22.7884Z" fill="#2D6866"/>
<path d="M34.8315 20.8516C36.4291 19.2532 33.5719 16.1046 35.2191 16.1046C36.4604 16.1046 39.3558 13.7913 41.0777 14.4406C42.0673 12.0701 43.2658 11.0455 44.4247 10.6206C43.3513 10.0232 42.0695 9.25413 41.225 10.0987C39.9654 11.3583 34.444 7.77403 31.3441 15.8146C28.2443 23.8545 33.2332 22.4492 34.8315 20.8516Z" fill="#2D6866"/>
<path d="M40.5788 76.4531C38.467 73.8858 39.941 74.0307 37.8757 69.7689C35.8112 65.5072 34.8422 68.4132 28.1497 66.4753C21.4572 64.5382 21.8547 53.011 24.3251 50.008C26.7947 47.0051 27.7507 45.068 31.3365 40.7093C31.348 40.6948 31.3594 40.6826 31.3709 40.6689C29.1942 40.2432 24.2198 36.5963 20.1076 40.7093C15.7481 45.068 14.5862 47.0051 11.5833 50.008C8.58033 53.011 8.09586 64.5382 16.2326 66.4753C24.3694 68.4132 25.5473 65.5072 28.0582 69.7689C30.569 74.0307 28.7769 73.8858 31.3442 76.4531C33.5773 78.6862 32.5115 85.2444 37.1074 88.316C38.8347 89.4696 41.1342 89.4444 42.7379 88.1253C43.1751 87.7659 43.584 87.3066 43.9105 86.7253C41.7423 83.3752 42.1405 78.3513 40.5788 76.4531Z" fill="#2D6866"/>
<path d="M46.5046 10.345C47.5185 10.3809 48.3356 10.5487 48.7057 10.0986C49.741 8.83972 51.5736 11.1644 52.4502 11.1644C53.3268 11.1644 53.5656 8.54904 51.2546 5.7399C50.288 4.56421 50.2148 3.03223 50.4558 1.64825C48.2738 1.06537 46.03 0.632019 43.7374 0.358887C43.1164 1.99539 42.7654 4.18045 44.3241 5.7399C46.1742 7.58926 46.6793 9.35471 46.5046 10.345Z" fill="#2D6866"/>
<path d="M71.8936 83.7402H78.3794V91.8785H71.8936V83.7402Z" fill="#FFD47C"/>
<path d="M71.8936 59.3271H78.3794V67.4654H71.8936V59.3271Z" fill="#FFD47C"/>
<path d="M60.1063 28.6279L24.6372 56.7209C25.7061 57.2763 26.5117 58.2712 26.8131 59.4652L62.3073 31.3516C61.2758 30.7497 60.4832 29.7823 60.1063 28.6279Z" fill="#E6EEEE"/>
<path d="M39.1667 17.6367C39.2713 17.9854 39.3293 18.3546 39.3293 18.7369C39.3293 19.6257 39.0233 20.4436 38.5152 21.0966L59.8783 27.455C59.8699 27.3398 59.8645 27.2246 59.8645 27.1071C59.8645 25.9764 60.2491 24.935 60.893 24.1034L39.1667 17.6367Z" fill="#E6EEEE"/>
<path d="M42.0812 14.9208C39.974 11.2709 35.3071 10.0204 31.6572 12.1277C28.0073 14.2349 26.7568 18.9018 28.864 22.5517C30.9713 26.2016 35.6382 27.4521 39.2881 25.3448C42.938 23.2376 44.1884 18.5707 42.0812 14.9208Z" fill="#FFF084"/>
<path d="M37.4926 23.6345C37.0173 22.8105 37.0921 21.8225 37.6002 21.0886L34.4996 15.719C33.6108 15.7923 32.7166 15.3627 32.2413 14.5388C31.6874 13.579 31.8797 12.3957 32.6357 11.6533C32.3039 11.7868 31.9766 11.9432 31.6577 12.1279C28.0077 14.2351 26.7573 18.9028 28.8645 22.5527C30.9718 26.2026 35.6387 27.453 39.2886 25.3458C39.6082 25.1612 39.9073 24.9567 40.1888 24.7354C39.1688 25.0192 38.0465 24.5943 37.4926 23.6345Z" fill="#FFD47C"/>
<path d="M38.7768 16.8285C37.7232 15.0036 35.3894 14.3787 33.5644 15.4323C31.7395 16.486 31.1146 18.8198 32.1682 20.6447C33.2219 22.4689 35.5549 23.0945 37.3799 22.0409C39.2048 20.9873 39.8304 18.6535 38.7768 16.8285Z" fill="#FFB874"/>
<path d="M30.2199 55.8815C27.8143 51.715 22.4875 50.2884 18.3211 52.6931C14.1554 55.0987 12.728 60.4255 15.1335 64.5919C17.5383 68.7583 22.8659 70.185 27.0315 67.7803C31.198 65.3747 32.6254 60.0471 30.2199 55.8815Z" fill="#FFF084"/>
<path d="M24.9823 65.829C24.439 64.8883 24.5253 63.7599 25.1051 62.923L21.5658 56.7935C20.5511 56.8774 19.5311 56.3876 18.9886 55.4469C18.3554 54.3513 18.5759 53.0002 19.4387 52.1533C19.0596 52.3051 18.6857 52.4844 18.3218 52.695C14.1554 55.1006 12.7279 60.4274 15.1335 64.5938C17.539 68.7602 22.8666 70.1877 27.0323 67.7821C27.397 67.5716 27.7388 67.3381 28.06 67.0856C26.8949 67.4098 25.6147 66.9246 24.9823 65.829Z" fill="#FFD47C"/>
<path d="M26.4477 58.0591C25.2453 55.9763 22.5818 55.2622 20.499 56.4653C18.4154 57.6677 17.7021 60.3311 18.9045 62.4147C20.1076 64.4976 22.7711 65.2109 24.8539 64.0085C26.9367 62.8061 27.6508 60.1419 26.4477 58.0591Z" fill="#FFB874"/>
<path d="M73.1978 22.2442C70.5123 17.5926 64.5652 15.9996 59.9135 18.6851C55.2627 21.3699 53.6689 27.3178 56.3544 31.9686C59.04 36.6203 64.9871 38.2133 69.6387 35.5278C74.2896 32.843 75.8834 26.8951 73.1978 22.2442Z" fill="#FFF084"/>
<path d="M67.3509 33.348C66.7451 32.2982 66.8405 31.0386 67.4882 30.1048L63.5369 23.2612C62.404 23.3543 61.2649 22.808 60.6591 21.7582C59.9526 20.5345 60.1983 19.0261 61.1619 18.0801C60.7385 18.2502 60.3219 18.4509 59.9153 18.6859C55.2636 21.3706 53.6698 27.3185 56.3554 31.9694C59.0409 36.621 64.9888 38.2148 69.6397 35.5293C70.0463 35.2943 70.4286 35.0334 70.7871 34.7518C69.4863 35.1135 68.0573 34.5718 67.3509 33.348Z" fill="#FFD47C"/>
<path d="M68.9871 24.6759C67.6443 22.3497 64.6704 21.5532 62.3449 22.896C60.0195 24.2388 59.223 27.2127 60.565 29.5382C61.9078 31.8636 64.8817 32.6601 67.2071 31.3173C69.5326 29.9746 70.3299 27.0014 68.9871 24.6759Z" fill="#FFB874"/>
<path d="M80.859 51.1895H46.5801C45.2953 51.1895 44.2539 52.2309 44.2539 53.5157V57.0008C44.2539 58.2856 45.2953 59.3277 46.5801 59.3277H80.859C82.1438 59.3277 83.186 58.2856 83.186 57.0008V53.5157C83.1852 52.2309 82.1438 51.1895 80.859 51.1895Z" fill="#FFF084"/>
<path d="M80.859 55.2581H46.5802C45.3946 55.2581 44.418 54.3708 44.2746 53.2241C44.2624 53.3195 44.254 53.4164 44.254 53.5156V57.0007C44.254 58.2855 45.2954 59.3276 46.5802 59.3276H80.859C82.1438 59.3276 83.186 58.2855 83.186 57.0007V53.5156C83.186 53.4164 83.1776 53.3195 83.1654 53.2241C83.0212 54.3708 82.0447 55.2581 80.859 55.2581Z" fill="#FFD47C"/>
<path d="M60.4771 51.1895H66.9628V59.327H60.4771V51.1895Z" fill="#FFD47C"/>
<path d="M49.0606 51.1895H55.5464V59.327H49.0606V51.1895Z" fill="#FFD47C"/>
<path d="M71.8937 51.1895H78.3794V59.327H71.8937V51.1895Z" fill="#FFD47C"/>
<path d="M60.4771 55.2583H66.9628V59.3278H60.4771V55.2583Z" fill="#FFB874"/>
<path d="M49.0606 55.2583H55.5464V59.3278H49.0606V55.2583Z" fill="#FFB874"/>
<path d="M71.8937 55.2583H78.3794V59.3278H71.8937V55.2583Z" fill="#FFB874"/>
<path d="M80.859 59.3271H46.5802C45.2954 59.3271 44.254 60.3693 44.254 61.6541V65.1392C44.254 66.424 45.2954 67.4654 46.5802 67.4654H80.859C82.1438 67.4654 83.186 66.424 83.186 65.1392V61.6541C83.1852 60.3693 82.1438 59.3271 80.859 59.3271Z" fill="#FFF084"/>
<path d="M80.859 63.3966H46.5801C45.3945 63.3966 44.4179 62.5085 44.2745 61.3618C44.2623 61.4572 44.2539 61.5541 44.2539 61.654V65.1391C44.2539 66.4239 45.2953 67.4653 46.5801 67.4653H80.859C82.1438 67.4653 83.186 66.4239 83.186 65.1391V61.654C83.186 61.5548 83.1776 61.4572 83.1654 61.3618C83.0212 62.5085 82.0446 63.3966 80.859 63.3966Z" fill="#FFD47C"/>
<path d="M60.4771 59.3271H66.9629V67.4654H60.4771V59.3271Z" fill="#FFD47C"/>
<path d="M49.0606 59.3271H55.5464V67.4654H49.0606V59.3271Z" fill="#FFD47C"/>
<path d="M71.8936 59.3271H78.3794V67.4654H71.8936V59.3271Z" fill="#FFD47C"/>
<path d="M60.4771 63.3965H66.9628V67.4652H60.4771V63.3965Z" fill="#FFB874"/>
<path d="M49.0606 63.3965H55.5464V67.4652H49.0606V63.3965Z" fill="#FFB874"/>
<path d="M71.8937 63.3965H78.3794V67.4652H71.8937V63.3965Z" fill="#FFB874"/>
<path d="M80.859 83.7402H46.5802C45.2954 83.7402 44.254 84.7824 44.254 86.0664V89.5523C44.254 90.8371 45.2954 91.8785 46.5802 91.8785H80.859C82.1438 91.8785 83.186 90.8371 83.186 89.5523V86.0664C83.1852 84.7816 82.1438 83.7402 80.859 83.7402Z" fill="#FFF084"/>
<path d="M80.859 87.8089H46.5802C45.3946 87.8089 44.418 86.9216 44.2746 85.7749C44.2624 85.8703 44.254 85.9672 44.254 86.0663V89.5515C44.254 90.8362 45.2954 91.8784 46.5802 91.8784H80.859C82.1438 91.8784 83.186 90.8362 83.186 89.5515V86.0663C83.186 85.9672 83.1776 85.8703 83.1654 85.7749C83.0212 86.9216 82.0447 87.8089 80.859 87.8089Z" fill="#FFD47C"/>
<path d="M60.4771 83.7402H66.9629V91.8785H60.4771V83.7402Z" fill="#FFD47C"/>
<path d="M49.0606 83.7402H55.5464V91.8785H49.0606V83.7402Z" fill="#FFD47C"/>
<path d="M71.8936 83.7402H78.3794V91.8785H71.8936V83.7402Z" fill="#FFD47C"/>
<path d="M60.4771 87.8091H66.9628V91.8786H60.4771V87.8091Z" fill="#FFB874"/>
<path d="M49.0606 87.8091H55.5464V91.8786H49.0606V87.8091Z" fill="#FFB874"/>
<path d="M71.8937 87.8091H78.3794V91.8786H71.8937V87.8091Z" fill="#FFB874"/>
<path d="M80.859 91.8784H46.5802C45.2954 91.8784 44.254 92.9198 44.254 94.2046V97.6897C44.254 98.9745 45.2954 100.016 46.5802 100.016H80.859C82.1438 100.016 83.186 98.9745 83.186 97.6897V94.2046C83.1852 92.9198 82.1438 91.8784 80.859 91.8784Z" fill="#FFF084"/>
<path d="M80.859 95.9466H46.5801C45.3945 95.9466 44.4179 95.0593 44.2745 93.9126C44.2623 94.008 44.2539 94.1049 44.2539 94.204V97.6892C44.2539 98.9739 45.2953 100.015 46.5801 100.015H80.859C82.1438 100.015 83.186 98.9739 83.186 97.6892V94.204C83.186 94.1056 83.1776 94.008 83.1654 93.9126C83.0212 95.0593 82.0446 95.9466 80.859 95.9466Z" fill="#FFD47C"/>
<path d="M60.4771 91.8784H66.9629V100.016H60.4771V91.8784Z" fill="#FFD47C"/>
<path d="M49.0606 91.8784H55.5464V100.016H49.0606V91.8784Z" fill="#FFD47C"/>
<path d="M71.8936 91.8784H78.3794V100.016H71.8936V91.8784Z" fill="#FFD47C"/>
<path d="M60.4771 95.9468H66.9629V100.016H60.4771V95.9468Z" fill="#FFB874"/>
<path d="M49.0606 95.9468H55.5464V100.016H49.0606V95.9468Z" fill="#FFB874"/>
<path d="M71.8936 95.9468H78.3794V100.016H71.8936V95.9468Z" fill="#FFB874"/>
<path d="M84.1025 67.4653H49.8236C48.5388 67.4653 47.4966 68.5067 47.4966 69.7915V73.2766C47.4966 74.5614 48.5388 75.6028 49.8236 75.6028H84.1025C85.3873 75.6028 86.4287 74.5614 86.4287 73.2766V69.7915C86.4287 68.5067 85.3873 67.4653 84.1025 67.4653Z" fill="#FFF084"/>
<path d="M84.102 71.5343H49.8231C48.6367 71.5343 47.6609 70.6462 47.5168 69.4995C47.5045 69.5956 47.4962 69.6925 47.4962 69.7917V73.2768C47.4962 74.5616 48.5383 75.603 49.8231 75.603H84.102C85.3868 75.603 86.4282 74.5616 86.4282 73.2768V69.7917C86.4282 69.6925 86.4198 69.5956 86.4076 69.4995C86.2642 70.6462 85.2876 71.5343 84.102 71.5343Z" fill="#FFD47C"/>
<path d="M63.7193 67.4653H70.205V75.6028H63.7193V67.4653Z" fill="#FFD47C"/>
<path d="M52.3028 67.4653H58.7885V75.6028H52.3028V67.4653Z" fill="#FFD47C"/>
<path d="M75.1363 67.4653H81.622V75.6028H75.1363V67.4653Z" fill="#FFD47C"/>
<path d="M63.7198 71.5342H70.2055V75.6029H63.7198V71.5342Z" fill="#FFB874"/>
<path d="M52.3028 71.5342H58.7885V75.6029H52.3028V71.5342Z" fill="#FFB874"/>
<path d="M75.1363 71.5342H81.622V75.6029H75.1363V71.5342Z" fill="#FFB874"/>
<path d="M84.102 75.603H49.8231C48.5383 75.603 47.4962 76.6444 47.4962 77.9292V81.4143C47.4962 82.6991 48.5383 83.7413 49.8231 83.7413H84.102C85.3868 83.7413 86.4282 82.6991 86.4282 81.4143V77.9292C86.4282 76.6444 85.3868 75.603 84.102 75.603Z" fill="#FFF084"/>
<path d="M84.102 79.6715H49.8231C48.6367 79.6715 47.6609 78.7834 47.5168 77.6367C47.5045 77.7328 47.4962 77.8297 47.4962 77.9289V81.414C47.4962 82.6988 48.5383 83.7402 49.8231 83.7402H84.102C85.3868 83.7402 86.4282 82.6988 86.4282 81.414V77.9289C86.4282 77.8297 86.4198 77.7328 86.4076 77.6367C86.2642 78.7834 85.2876 79.6715 84.102 79.6715Z" fill="#FFD47C"/>
<path d="M63.7198 75.603H70.2055V83.7405H63.7198V75.603Z" fill="#FFD47C"/>
<path d="M52.3028 75.603H58.7885V83.7405H52.3028V75.603Z" fill="#FFD47C"/>
<path d="M75.1363 75.603H81.622V83.7405H75.1363V75.603Z" fill="#FFD47C"/>
<path d="M63.7198 79.6714H70.2055V83.7401H63.7198V79.6714Z" fill="#FFB874"/>
<path d="M52.3028 79.6714H58.7885V83.7401H52.3028V79.6714Z" fill="#FFB874"/>
<path d="M75.1363 79.6714H81.622V83.7401H75.1363V79.6714Z" fill="#FFB874"/>
<path d="M95.1344 69.3064C89.758 59.9948 77.8508 56.8041 68.5391 62.1806C59.2266 67.557 56.0368 79.4642 61.4132 88.7759C66.7897 98.0883 78.6961 101.278 88.0085 95.9017C97.3202 90.5253 100.511 78.6181 95.1344 69.3064Z" fill="#FFD47C"/>
<path d="M87.3683 94.7244C87.424 94.6138 87.3531 94.4795 87.231 94.4604C86.8236 94.394 86.4482 94.153 86.2255 93.7677C86.0233 93.4167 85.9874 93.0162 86.0935 92.6561C86.1278 92.5378 86.0378 92.4218 85.9142 92.418C85.2001 92.3936 84.5157 92.0091 84.1411 91.3354C83.7398 90.6137 83.8192 89.731 84.2754 89.0855C84.2746 89.0855 84.2739 89.0855 84.2739 89.0855C81.1985 88.5553 81.3938 85.8491 81.3938 85.8491L81.2397 84.6322H75.1896V72.2375H73.8323C71.6556 71.0885 72.4254 68.9111 72.4254 68.9111V68.8638C71.6945 68.8714 70.9736 68.5029 70.5791 67.8453C70.1831 67.1846 70.1923 66.3987 70.528 65.7686C70.5867 65.6587 70.5318 65.5237 70.4113 65.4939C70.0466 65.4054 69.7178 65.1742 69.5148 64.824C69.2928 64.4388 69.2714 63.9924 69.4179 63.6071C69.4622 63.4912 69.3821 63.363 69.2585 63.3554C68.7297 63.3226 68.2277 63.0357 67.9393 62.5459C59.0946 68.0795 56.1558 79.6693 61.4147 88.778C66.6736 97.8868 78.181 101.137 87.3966 96.2426C87.1318 95.7544 87.1372 95.1898 87.3683 94.7244Z" fill="#FFB874"/>
<path d="M86.0278 92.4712C78.6235 96.7468 69.1218 94.2001 64.8471 86.7957C60.5716 79.3914 63.1183 69.8898 70.5226 65.6143C77.9269 61.3395 87.4286 63.8854 91.7033 71.2898C95.9788 78.6949 93.4329 88.1965 86.0278 92.4712ZM72.4254 68.9109C66.8384 72.1366 64.9173 79.306 68.143 84.893C71.3687 90.48 78.538 92.4011 84.125 89.1754C89.7128 85.9496 91.6339 78.7803 88.4074 73.1933C85.1817 67.6063 78.0124 65.6852 72.4254 68.9109Z" fill="#FFF084"/>
<path d="M86.0333 92.4685C86.0005 92.441 85.9616 92.4197 85.9143 92.4181C85.2002 92.3937 84.5158 92.0092 84.1412 91.3355C83.7407 90.6138 83.8177 89.7311 84.2732 89.0856C84.2236 89.1154 84.1755 89.1467 84.1252 89.1757C78.5389 92.4014 71.3688 90.4803 68.1431 84.8933C64.9174 79.3063 66.8385 72.1369 72.4255 68.9112C72.4568 68.8929 72.4888 68.8769 72.5209 68.8593C71.7572 68.9021 70.9904 68.532 70.5792 67.8454C70.1832 67.1847 70.1924 66.3989 70.5281 65.7687C70.5563 65.716 70.5571 65.6573 70.538 65.6069C70.5327 65.61 70.5273 65.6123 70.5227 65.6153C63.1184 69.8901 60.5725 79.3917 64.8472 86.796C69.122 94.2011 78.6236 96.7471 86.028 92.4715C86.0302 92.4708 86.031 92.47 86.0333 92.4685Z" fill="#FFD47C"/>
<path d="M76.8465 72.4901V71.1946C76.8465 70.3622 76.172 69.687 75.3397 69.687C74.5065 69.687 73.8321 70.3622 73.8321 71.1946V72.4901H76.8465Z" fill="#FF9165"/>
<path d="M73.8321 85.5967V86.8922C73.8321 87.7245 74.5065 88.3997 75.3389 88.3997C76.1713 88.3997 76.8465 87.7245 76.8465 86.8922V85.5967H73.8321Z" fill="#FF9165"/>
<path d="M79.8863 75.2519C79.0539 75.2519 78.3795 74.5775 78.3795 73.7443V71.1946C78.3795 70.3622 79.0539 69.687 79.8863 69.687C80.7194 69.687 81.3938 70.3622 81.3938 71.1946V73.7443C81.3938 74.5775 80.7194 75.2519 79.8863 75.2519Z" fill="#FF9165"/>
<path d="M79.8863 88.3998C79.0539 88.3998 78.3795 87.7246 78.3795 86.8923V84.3418C78.3795 83.5094 79.0539 82.835 79.8863 82.835C80.7194 82.835 81.3938 83.5094 81.3938 84.3418V86.8923C81.3938 87.7246 80.7194 88.3998 79.8863 88.3998Z" fill="#FF9165"/>
<path d="M88.764 97.21C78.7467 102.993 65.8927 99.5484 60.1088 89.5317C54.3257 79.5143 57.7704 66.6603 67.787 60.8765C77.8044 55.0934 90.6592 58.5373 96.4423 68.5547C102.225 78.5714 98.7814 91.4261 88.764 97.21ZM69.2946 63.4873C60.7169 68.4395 57.7673 79.4464 62.7196 88.0242C67.6718 96.6019 78.6795 99.5514 87.2565 94.5992C95.8342 89.6469 98.7837 78.6393 93.8315 70.0623C88.8792 61.4846 77.8723 58.535 69.2946 63.4873Z" fill="#FFB874"/>
<path d="M87.4167 96.2837C87.1298 95.787 87.1314 95.2026 87.3686 94.7242C87.3999 94.6617 87.3885 94.5938 87.3526 94.5419C87.3206 94.5602 87.2893 94.58 87.2565 94.5991C78.6795 99.5506 67.6718 96.6018 62.7196 88.0241C57.7673 79.4464 60.7169 68.4394 69.2946 63.4872C69.3274 63.4681 69.3602 63.4506 69.393 63.4323C69.3617 63.3895 69.3152 63.3582 69.258 63.3552C68.7254 63.3216 68.2181 63.0309 67.9312 62.5335C67.5963 61.9529 67.6558 61.2541 68.0235 60.7437C67.945 60.7879 67.8656 60.8314 67.787 60.8764C57.7704 66.6595 54.3257 79.5143 60.1088 89.5317C65.8927 99.5483 78.7467 102.993 88.764 97.2099C88.8228 97.1755 88.88 97.1404 88.9388 97.1061C88.3368 97.1389 87.7387 96.8414 87.4167 96.2837Z" fill="#FFA46D"/>
<path d="M84.3327 78.5071C84.7004 77.8876 84.9125 77.1651 84.9125 76.3938C84.9125 74.1019 83.0479 72.2373 80.756 72.2373H73.4417C72.6093 72.2373 71.9341 72.9117 71.9341 73.7441C71.9341 74.5772 72.6093 75.2517 73.4417 75.2517H80.756C81.3854 75.2517 81.8974 75.7636 81.8974 76.3938C81.8974 77.0232 81.3854 77.5359 80.756 77.5359H75.3788C74.5464 77.5359 73.872 78.2104 73.872 79.0427C73.872 79.8751 74.5464 80.5503 75.3788 80.5503H81.6662C82.2956 80.5503 82.8076 81.0622 82.8076 81.6924C82.8076 82.3218 82.2956 82.8338 81.6662 82.8338H73.4417C72.6093 82.8338 71.9341 83.509 71.9341 84.3413C71.9341 85.1737 72.6093 85.8489 73.4417 85.8489H81.6662C83.9581 85.8489 85.8227 83.9835 85.8227 81.6924C85.8227 80.4145 85.2429 79.2701 84.3327 78.5071Z" fill="#FFA46D"/>
<path d="M78.5383 77.5361H75.3789C74.5466 77.5361 73.8721 78.2106 73.8721 79.0429C73.8721 79.8753 74.5466 80.5505 75.3789 80.5505H78.5383C77.7059 80.5505 77.0315 79.8753 77.0315 79.0429C77.0315 78.2106 77.7059 77.5361 78.5383 77.5361Z" fill="#FF9165"/>
<path d="M73.4417 75.2517H78.4443C77.6119 75.2517 76.9375 74.5772 76.9375 73.7441C76.9375 72.9117 77.6119 72.2373 78.4443 72.2373H73.4417C72.6093 72.2373 71.9341 72.9117 71.9341 73.7441C71.9341 74.5772 72.6093 75.2517 73.4417 75.2517Z" fill="#FF9165"/>
<path d="M76.9375 84.3418C76.9375 83.5094 77.6119 82.835 78.4443 82.835H73.4417C72.6093 82.835 71.9341 83.5094 71.9341 84.3418C71.9341 85.1741 72.6093 85.8493 73.4417 85.8493H78.4443C77.6119 85.8493 76.9375 85.1741 76.9375 84.3418Z" fill="#FF9165"/>
<path d="M73.8321 74.9995H76.8465V83.0874H73.8321V74.9995Z" fill="#FF9165"/>
</g>
<defs>
<clipPath id="clip0_317_1195">
<rect width="100" height="100" fill="white" transform="translate(0.22467 0.0161133)"/>
</clipPath>
</defs>
</svg>
