<svg width="85" height="84" viewBox="0 0 85 84" fill="none" xmlns="http://www.w3.org/2000/svg">
<path d="M17.1518 81.375C25.1254 81.375 31.5893 74.9111 31.5893 66.9375C31.5893 58.9639 25.1254 52.5 17.1518 52.5C9.17818 52.5 2.71429 58.9639 2.71429 66.9375C2.71429 74.9111 9.17818 81.375 17.1518 81.375Z" fill="#FFF084"/>
<path d="M19.4409 81.1952L15.9457 78.8038C15.0889 78.375 14.335 77.7658 13.7358 77.0182C13.1366 76.2706 12.7062 75.4022 12.4741 74.4726C12.1045 72.9926 11.2364 71.685 10.0158 70.77L8.30955 69.4916C7.23004 68.6814 6.42292 67.5616 5.99562 66.2813L4.13187 60.69C5.28075 58.3056 7.05994 56.2809 9.27687 54.835L9.98037 60.0495C10.1706 61.3812 10.6554 62.6537 11.3995 63.7744C12.1435 64.8951 13.128 65.8358 14.2814 66.528C16.1334 67.6391 17.5268 69.3761 18.2097 71.425L18.5917 72.5695C19.3505 74.846 20.9827 76.7279 23.129 77.8011L25.2487 78.8918C23.5054 80.0768 21.5225 80.8633 19.4409 81.1952Z" fill="#FFB874"/>
<path d="M30.5576 72.3055L27.758 70.9287C26.9012 70.4998 26.1473 69.8907 25.5481 69.143C24.9489 68.3954 24.5185 67.527 24.2864 66.5974C23.9168 65.1174 23.0487 63.8099 21.8281 62.8948L20.1219 61.6165C19.0424 60.8062 18.2352 59.6864 17.8079 58.4061L15.8589 52.5563C16.2841 52.5182 16.7159 52.4985 17.1517 52.4985C19.5114 52.4998 21.8349 53.0791 23.919 54.1858C26.0031 55.2925 27.7843 56.8929 29.1069 58.8471C30.4296 60.8013 31.2534 63.0497 31.5062 65.3959C31.7591 67.742 31.4334 70.1143 30.5576 72.3055Z" fill="#FFB874"/>
<path d="M68.2356 31.2231C62.5787 32.9739 52.983 34.125 42.0893 34.125C31.1955 34.125 21.63 32.9779 15.9705 31.2375L15.9443 31.2283C15.8743 30.4513 15.8393 29.6669 15.8393 28.875C15.8393 21.9131 18.6049 15.2363 23.5277 10.3134C28.4506 5.39062 35.1274 2.625 42.0893 2.625C49.0512 2.625 55.728 5.39062 60.6508 10.3134C65.5737 15.2363 68.3393 21.9131 68.3393 28.875C68.3393 29.6625 68.3047 30.4452 68.2356 31.2231Z" fill="#858BB5"/>
<path d="M66.2093 39.25C58.313 41.1547 50.2119 42.0782 42.0895 41.9997C33.9671 42.0782 25.866 41.1547 17.9697 39.25C19.9991 43.9635 23.3651 47.979 27.6517 50.8004C31.9383 53.6219 36.9577 55.1255 42.0895 55.1255C47.2213 55.1255 52.2406 53.6219 56.5272 50.8004C60.8139 47.979 64.1799 43.9635 66.2093 39.25Z" fill="#787FAA"/>
<path d="M58.5114 49.3502C54.5428 52.531 49.7362 54.4913 44.675 54.9931C39.6139 55.495 34.5159 54.5168 29.9999 52.1773L33.1775 50.2716C36.4322 48.3176 40.157 47.2855 43.9531 47.2856H48.791C51.3012 47.2866 53.7908 47.7387 56.141 48.6205C56.9136 48.9095 57.7025 49.1532 58.5035 49.3502H58.5114Z" fill="#4C506E"/>
<path d="M45.5017 34.0868C40.2489 33.8185 35.166 32.1366 30.7899 29.2187C26.4538 26.3293 21.4236 24.6526 16.2211 24.3624C16.6914 21.6486 17.5889 19.0265 18.8803 16.5938C23.6079 17.0792 28.1457 18.711 32.0998 21.3476C36.9004 24.5461 42.5405 26.2518 48.3091 26.2498H52.9304C55.3198 26.2503 57.7001 25.9572 60.0179 25.377L64.4896 24.2601C65.5845 23.9837 66.6946 23.7716 67.8142 23.6248L67.8444 23.7784C68.1744 25.4571 68.3401 27.164 68.3392 28.8748C68.3392 29.6623 68.3046 30.445 68.2355 31.2229C63.1771 32.7887 54.9688 33.8741 45.5043 34.0868H45.5017Z" fill="#4C506E"/>
<path d="M61.1625 10.8401C59.8994 11.0635 58.6596 11.4026 57.4587 11.8533C55.1083 12.7346 52.6188 13.1863 50.1087 13.1868H45.2655C41.4696 13.1868 37.745 12.1552 34.4899 10.2022L30.4474 7.77669C29.7194 7.33969 28.9655 6.9474 28.1899 6.602C33.3312 3.39625 39.4228 2.06691 45.4322 2.83932C51.4416 3.61172 56.9991 6.43835 61.1625 10.8401Z" fill="#787FAA"/>
<path d="M67.8458 23.7839C71.4644 24.8523 73.5893 26.1556 73.5893 27.5626C73.5893 31.1864 59.4865 34.1251 42.0893 34.1251C24.6921 34.1251 10.5893 31.1864 10.5893 27.5626C10.5893 26.1556 12.7142 24.8523 16.3328 23.7839C16.6895 21.9716 17.2382 20.2025 17.9695 18.5063C8.68748 20.9017 2.71429 24.6554 2.71429 28.8751C2.71429 36.124 20.3425 42.0001 42.0893 42.0001C63.8361 42.0001 81.4643 36.124 81.4643 28.8751C81.4643 24.6554 75.4911 20.9017 66.2091 18.5063C66.9408 20.2046 67.4895 21.976 67.8458 23.7905V23.7839Z" fill="#2C2F41"/>
<path d="M67.0268 51.1875L73.5893 49.875L76.2143 51.1875L77.5268 56.4375L73.5893 60.375L67.0268 56.4375V51.1875Z" fill="#474747"/>
<path d="M67.0268 51.1875L73.5893 49.875L76.2143 51.1875L77.5268 56.4375L73.5893 60.375L67.0268 56.4375V51.1875Z" fill="#474747"/>
<path d="M47.3393 72.1875L53.9018 70.875L56.5268 72.1875L57.8393 77.4375L53.9018 81.375L47.3393 77.4375V72.1875Z" fill="#686868"/>
<path d="M73.5893 81.375C73.0701 81.375 72.5626 81.2211 72.1309 80.9326C71.6992 80.6442 71.3628 80.2342 71.1641 79.7545C70.9654 79.2749 70.9134 78.7471 71.0147 78.2379C71.116 77.7287 71.366 77.261 71.7331 76.8938C72.1003 76.5267 72.568 76.2767 73.0772 76.1754C73.5864 76.0742 74.1142 76.1261 74.5938 76.3248C75.0735 76.5235 75.4835 76.86 75.7719 77.2916C76.0604 77.7233 76.2143 78.2308 76.2143 78.75C76.2143 79.4462 75.9377 80.1139 75.4455 80.6062C74.9532 81.0984 74.2855 81.375 73.5893 81.375Z" fill="#2C2F41"/>
<path d="M78.8393 44.625C78.3201 44.625 77.8126 44.4711 77.3809 44.1826C76.9492 43.8942 76.6128 43.4842 76.4141 43.0045C76.2154 42.5249 76.1634 41.9971 76.2647 41.4879C76.366 40.9787 76.616 40.511 76.9831 40.1438C77.3503 39.7767 77.818 39.5267 78.3272 39.4254C78.8364 39.3242 79.3642 39.3761 79.8438 39.5748C80.3235 39.7735 80.7335 40.11 81.0219 40.5416C81.3104 40.9733 81.4643 41.4808 81.4643 42C81.4643 42.6962 81.1877 43.3639 80.6955 43.8562C80.2032 44.3484 79.5355 44.625 78.8393 44.625Z" fill="#858BB5"/>
<path d="M57.8393 63C57.3201 63 56.8126 62.8461 56.3809 62.5576C55.9492 62.2692 55.6128 61.8592 55.4141 61.3795C55.2154 60.8999 55.1634 60.3721 55.2647 59.8629C55.366 59.3537 55.616 58.886 55.9831 58.5188C56.3503 58.1517 56.818 57.9017 57.3272 57.8004C57.8364 57.6992 58.3642 57.7511 58.8438 57.9498C59.3235 58.1485 59.7335 58.4849 60.0219 58.9166C60.3103 59.3483 60.4643 59.8558 60.4643 60.375C60.4643 61.0712 60.1877 61.7389 59.6955 62.2312C59.2032 62.7234 58.5355 63 57.8393 63Z" fill="#4C506E"/>
<path d="M42.0893 69.5625C41.5701 69.5625 41.0626 69.4086 40.6309 69.1201C40.1992 68.8317 39.8628 68.4217 39.6641 67.942C39.4654 67.4624 39.4134 66.9346 39.5147 66.4254C39.616 65.9162 39.866 65.4485 40.2331 65.0813C40.6002 64.7142 41.068 64.4642 41.5772 64.3629C42.0864 64.2617 42.6142 64.3136 43.0938 64.5123C43.5735 64.711 43.9835 65.0475 44.2719 65.4791C44.5603 65.9108 44.7143 66.4183 44.7143 66.9375C44.7143 67.6337 44.4377 68.3014 43.9454 68.7937C43.4532 69.2859 42.7855 69.5625 42.0893 69.5625Z" fill="#858BB5"/>
<path d="M42.0893 76.1248H39.4643V73.4985H36.8393V76.1235H34.2143V78.7472L36.8393 78.7485V81.3722H39.4643V78.7485L42.0893 78.7498V76.1248Z" fill="#FFD47C"/>
</svg>
