<svg width="145" height="145" viewBox="0 0 145 145" fill="none" xmlns="http://www.w3.org/2000/svg">
<g clip-path="url(#clip0_317_1456)">
<path d="M55.4118 55.6353C83.926 27.1223 111.716 8.68274 117.482 14.4502C123.249 20.2177 104.81 48.0072 76.2968 76.5202C47.7838 105.033 19.9942 123.473 14.2268 117.705C8.45928 111.939 26.8988 84.1495 55.4118 55.6353Z" fill="#F98B00"/>
<path d="M53.6032 53.8266C92.2234 15.2051 131.965 -7.66947 142.369 2.73442C152.772 13.1371 129.897 52.88 91.2768 91.5003C52.6566 130.121 12.9137 152.995 2.51102 142.592C-7.89287 132.189 14.9817 92.4468 53.6032 53.8266ZM14.2268 117.705C19.9931 123.473 47.7838 105.033 76.2968 76.5203C104.81 48.006 123.249 20.2165 117.482 14.4502C111.716 8.68277 83.9249 27.1223 55.4119 55.6353C26.8989 84.1483 8.45937 111.938 14.2268 117.705Z" fill="#FFEC6C"/>
<path d="M19.7566 72.6628C19.7566 101.759 43.3438 125.347 72.4393 125.347C101.536 125.347 125.123 101.759 125.123 72.6628C125.123 43.5674 101.536 19.9802 72.4393 19.9802C43.3438 19.9802 19.7566 43.5674 19.7566 72.6628Z" fill="#FFA300"/>
<path d="M45.6806 32.733C63.2592 15.1544 92.4391 15.8321 110.854 34.2475C129.271 52.6641 129.949 81.8439 112.37 99.4225C94.7904 117.002 65.6106 116.323 47.1952 97.908C28.7798 79.4926 28.1009 50.3127 45.6806 32.733Z" fill="#FFBE00"/>
<path d="M26.0778 92.1201C26.284 92.1201 26.4962 92.1104 26.7084 92.0911C61.0311 88.8185 88.4215 61.5439 91.8364 27.2405C92.1958 23.6218 89.5538 20.3962 85.9351 20.0357C82.3164 19.6763 79.0908 22.3171 78.7291 25.9346C75.9316 53.9942 53.5321 76.3032 25.4604 78.979C21.9635 79.313 19.3445 82.3336 19.5084 85.8437C19.6736 89.3539 22.5652 92.1152 26.0778 92.1201Z" fill="#FFA300"/>
<path d="M26.0776 92.12C26.2899 92.12 26.4961 92.1104 26.7143 92.0911C29.2405 91.8487 31.7523 91.4749 34.2387 90.9697C37.8007 90.2426 40.1002 86.7674 39.3767 83.2053C38.652 79.6421 35.178 77.3402 31.6148 78.0625C29.5794 78.4761 27.5222 78.7824 25.4542 78.9789C21.9585 79.3165 19.3419 82.3384 19.5083 85.8461C19.6747 89.3551 22.5663 92.1152 26.0776 92.12Z" fill="#F98B00"/>
<path d="M31.2807 64.7754C32.372 64.7754 33.4464 64.5029 34.4062 63.9844C48.1671 56.5095 59.1619 44.8105 65.771 30.6131C67.2976 27.314 65.8614 23.4011 62.5611 21.8733C59.2619 20.3467 55.349 21.7828 53.8213 25.0832C48.4107 36.705 39.4092 46.2792 28.1419 52.3952C25.4879 53.8301 24.1482 56.8845 24.8898 59.8086C25.6302 62.7328 28.2637 64.779 31.2807 64.7754Z" fill="#FFA300"/>
<path d="M46.098 122.054C87.8546 122.054 121.83 88.0817 121.83 46.3215C121.832 42.6823 118.884 39.7316 115.245 39.7316C111.606 39.7316 108.658 42.6823 108.66 46.3215C108.66 80.8178 80.5943 108.883 46.098 108.883C42.4588 108.881 39.5081 111.829 39.5081 115.468C39.5081 119.108 42.4588 122.057 46.098 122.054Z" fill="#FFA300"/>
<path d="M46.0981 122.053C55.9979 122.071 65.8037 120.136 74.9548 116.359C78.3178 114.975 79.9204 111.126 78.5349 107.763C77.1494 104.401 73.3004 102.799 69.9385 104.185C62.3768 107.301 54.276 108.898 46.0981 108.883C42.4589 108.881 39.5082 111.829 39.5082 115.468C39.5082 119.108 42.4589 122.057 46.0981 122.053Z" fill="#F98B00"/>
<path d="M91.2767 91.5002C75.1319 107.645 58.8195 120.98 44.5075 130.341L28.8884 114.723C40.9443 108.221 58.4794 94.3376 76.2967 76.5202C94.1141 58.7017 107.998 41.1678 114.5 29.1119L130.118 44.731C120.757 59.043 107.422 75.3554 91.2767 91.5002Z" fill="#FFEC6C"/>
<path d="M115.2 61.0615C117.256 61.0675 119.198 60.1077 120.441 58.4702C126.055 51.1158 153.497 13.8569 142.371 2.73439C140.059 0.421609 136.399 0.157533 133.777 2.11339C131.156 4.07045 130.369 7.65417 131.928 10.5289C131.754 14.607 126.39 28.9672 109.972 50.4828C108.454 52.4724 108.196 55.1505 109.304 57.3934C110.413 59.6374 112.697 61.0591 115.2 61.0615ZM133.047 12.0374C133.053 12.041 133.053 12.0434 133.059 12.047C133.053 12.0434 133.053 12.041 133.047 12.0374Z" fill="#FFFF9D"/>
<path d="M36.3161 134.302C37.5256 134.302 38.7121 133.968 39.7443 133.338C55.7963 123.537 74.0983 108.677 91.2766 91.5002C97.4118 85.3649 103.212 79.1646 108.505 73.0812C110.888 70.3355 110.596 66.1778 107.852 63.7927C105.109 61.4063 100.95 61.6957 98.5622 64.4378C93.4688 70.2933 87.887 76.2646 81.964 82.1876C65.5008 98.6483 48.0718 112.822 32.8759 122.096C30.3569 123.636 29.1704 126.662 29.9711 129.503C30.7717 132.343 33.3643 134.305 36.3161 134.302Z" fill="#FFFF9D"/>
<path d="M9.82087 145.103C13.9171 145.103 18.914 143.795 25.1011 141.103C28.4328 139.649 29.957 135.769 28.5052 132.436C27.0534 129.102 23.1742 127.576 19.8401 129.026C13.9171 131.604 10.9326 131.922 9.87152 131.932C6.96668 130.622 3.54092 131.581 1.737 134.208C-0.0669212 136.835 0.268299 140.376 2.53405 142.618C4.1993 144.267 6.65678 145.103 9.82087 145.103ZM11.7815 133.241C11.7888 133.244 11.7888 133.247 11.7948 133.253C11.7888 133.247 11.7888 133.244 11.7815 133.241Z" fill="#FFFF9D"/>
<path d="M118.538 79.2491C118.538 82.8859 121.486 85.8341 125.123 85.8341C128.76 85.8341 131.708 82.8859 131.708 79.2491C131.708 75.6123 128.76 72.6628 125.123 72.6628C121.486 72.6628 118.538 75.6123 118.538 79.2491Z" fill="#D6DEFF"/>
<path d="M26.3414 6.80891C26.3414 10.4457 29.2897 13.3939 32.9265 13.3939C36.5644 13.3939 39.5127 10.4457 39.5127 6.80891C39.5127 3.17213 36.5644 0.223877 32.9265 0.223877C29.2897 0.223877 26.3414 3.17213 26.3414 6.80891Z" fill="#D6DEFF"/>
<path d="M0.000335693 43.0284C0.000335693 44.848 1.47386 46.3215 3.29226 46.3215C5.11186 46.3215 6.58539 44.848 6.58539 43.0284C6.58539 41.21 5.11186 39.7365 3.29226 39.7365C1.47386 39.7365 0.000335693 41.21 0.000335693 43.0284Z" fill="#D6DEFF"/>
<path d="M138.294 122.054C138.294 123.873 139.768 125.347 141.586 125.347C143.406 125.347 144.879 123.873 144.879 122.054C144.879 120.235 143.406 118.762 141.586 118.762C139.768 118.762 138.294 120.235 138.294 122.054Z" fill="#D6DEFF"/>
<path d="M79.0253 141.81C79.0253 143.629 80.4989 145.103 82.3172 145.103C84.1368 145.103 85.6104 143.629 85.6104 141.81C85.6104 139.991 84.1368 138.518 82.3172 138.518C80.4989 138.518 79.0253 139.991 79.0253 141.81Z" fill="#D6DEFF"/>
<path d="M13.1704 92.4191C13.1704 96.0571 16.1199 99.0054 19.7566 99.0054C23.3934 99.0054 26.3417 96.0571 26.3417 92.4191C26.3417 88.7823 23.3934 85.8341 19.7566 85.8341C16.1199 85.8341 13.1704 88.7823 13.1704 92.4191Z" fill="#D6DEFF"/>
<path d="M118.538 3.51579C118.538 5.33538 120.012 6.8089 121.83 6.8089C123.65 6.8089 125.123 5.33538 125.123 3.51579C125.123 1.6974 123.65 0.223877 121.83 0.223877C120.012 0.223877 118.538 1.6974 118.538 3.51579Z" fill="#D6DEFF"/>
</g>
<defs>
<clipPath id="clip0_317_1456">
<rect width="145" height="145" fill="white" transform="matrix(-1 0 0 1 145 0)"/>
</clipPath>
</defs>
</svg>
