<svg width="101" height="101" viewBox="0 0 101 101" fill="none" xmlns="http://www.w3.org/2000/svg">
<g clip-path="url(#clip0_317_1285)">
<path d="M9.17545 77.4247C64.8861 95.6819 93.803 58.3154 97.4781 53.1495C97.4842 52.8215 97.4903 52.4942 97.4903 52.1646C97.4903 25.7371 76.0662 4.31299 49.6387 4.31299C23.2113 4.31299 1.78714 25.7363 1.78714 52.1646C1.78714 61.4068 4.41013 70.0357 8.94809 77.3515C9.02515 77.3767 9.09839 77.3996 9.17545 77.4247Z" fill="#669998"/>
<path d="M16.6827 86.8569C25.2635 95.0112 36.8663 100.016 49.6386 100.016C62.411 100.016 74.0138 95.0112 82.5946 86.8569H16.6827Z" fill="#2D6866"/>
<path d="M52.8926 86.8569H16.6827C25.2635 95.0112 36.8662 100.016 49.6386 100.016C50.5282 100.016 51.4117 99.9894 52.2898 99.9413C44.0425 99.3096 44.475 86.8569 52.8926 86.8569Z" fill="#265958"/>
<path d="M21.5948 68.1303C20.7861 68.1303 20.1299 67.4741 20.1299 66.6654V63.0728C20.1299 62.264 20.7861 61.6079 21.5948 61.6079C22.4035 61.6079 23.0596 62.264 23.0596 63.0728V66.6654C23.0596 67.4741 22.4035 68.1303 21.5948 68.1303Z" fill="#265958"/>
<path d="M35.6055 65.6085C34.7968 65.6085 34.1407 64.9532 34.1407 64.1437V60.5518C34.1407 59.7423 34.7968 59.0869 35.6055 59.0869C36.4143 59.0869 37.0704 59.7423 37.0704 60.5518V64.1437C37.0704 64.9532 36.4143 65.6085 35.6055 65.6085Z" fill="#265958"/>
<path d="M49.6163 74.9118C48.8068 74.9118 48.1514 74.2564 48.1514 73.4469V69.855C48.1514 69.0455 48.8068 68.3901 49.6163 68.3901C50.425 68.3901 51.0811 69.0455 51.0811 69.855V73.4469C51.0811 74.2564 50.425 74.9118 49.6163 74.9118Z" fill="#265958"/>
<path d="M63.6265 65.6085C62.817 65.6085 62.1617 64.9532 62.1617 64.1437V60.5518C62.1617 59.7423 62.817 59.0869 63.6265 59.0869C64.4352 59.0869 65.0914 59.7423 65.0914 60.5518V64.1437C65.0914 64.9532 64.4352 65.6085 63.6265 65.6085Z" fill="#265958"/>
<path d="M77.6373 51.8647C76.8278 51.8647 76.1725 51.2085 76.1725 50.3998V46.8071C76.1725 45.9984 76.8278 45.3423 77.6373 45.3423C78.446 45.3423 79.1021 45.9984 79.1021 46.8071V50.3998C79.1021 51.2085 78.446 51.8647 77.6373 51.8647Z" fill="#265958"/>
<path d="M91.647 45.9323C90.8383 45.9323 90.1822 45.2769 90.1822 44.4674V40.8755C90.1822 40.066 90.8383 39.4106 91.647 39.4106C92.4565 39.4106 93.1119 40.066 93.1119 40.8755V44.4674C93.1119 45.2761 92.4565 45.9323 91.647 45.9323Z" fill="#265958"/>
<path d="M23.965 30.4932H19.2241C18.7213 30.4932 18.3139 30.9006 18.3139 31.4034V62.1628C18.3139 62.6656 18.7213 63.0722 19.2241 63.0722H23.965C24.4678 63.0722 24.8745 62.6656 24.8745 62.1628V31.4034C24.8745 30.9006 24.4678 30.4932 23.965 30.4932Z" fill="#E6EEEE"/>
<path d="M23.9651 46.783H19.2242C18.7214 46.783 18.314 46.3755 18.314 45.8735V62.1631C18.314 62.6651 18.7214 63.0725 19.2242 63.0725H23.9651C24.4679 63.0725 24.8753 62.6651 24.8753 62.1631V45.8735C24.8745 46.3755 24.4679 46.783 23.9651 46.783Z" fill="#618988"/>
<path d="M37.9754 38.0493H33.2337C32.7317 38.0493 32.3243 38.4567 32.3243 38.9595V59.6413C32.3243 60.144 32.7317 60.5515 33.2337 60.5515H37.9754C38.4781 60.5515 38.8848 60.144 38.8848 59.6413V38.9595C38.8856 38.4567 38.4781 38.0493 37.9754 38.0493Z" fill="#E6EEEE"/>
<path d="M37.9754 49.3005H33.2345C32.7317 49.3005 32.3243 48.8931 32.3243 48.3911V59.6414C32.3243 60.1442 32.7317 60.5516 33.2345 60.5516H37.9754C38.4782 60.5516 38.8856 60.1442 38.8856 59.6414V48.3911C38.8856 48.8931 38.4782 49.3005 37.9754 49.3005Z" fill="#618988"/>
<path d="M51.9861 27.3521H47.2444C46.7424 27.3521 46.335 27.7595 46.335 28.2615V68.9452C46.335 69.4473 46.7424 69.8547 47.2444 69.8547H51.9861C52.4889 69.8547 52.8955 69.4473 52.8955 68.9452V28.2615C52.8963 27.7595 52.4889 27.3521 51.9861 27.3521Z" fill="#E6EEEE"/>
<path d="M51.9861 48.7207H47.2444C46.7424 48.7207 46.335 48.3133 46.335 47.8105V68.9447C46.335 69.4475 46.7424 69.8549 47.2444 69.8549H51.9861C52.4889 69.8549 52.8955 69.4475 52.8955 68.9447V47.8105C52.8963 48.3133 52.4889 48.7207 51.9861 48.7207Z" fill="#618988"/>
<path d="M65.9969 17.187H61.2552C60.7532 17.187 60.3458 17.5944 60.3458 18.0972V59.6415C60.3458 60.1443 60.7532 60.5517 61.2552 60.5517H65.9969C66.4989 60.5517 66.9063 60.1443 66.9063 59.6415V18.0972C66.9063 17.5944 66.4989 17.187 65.9969 17.187Z" fill="#E6EEEE"/>
<path d="M65.9969 38.8697H61.256C60.7532 38.8697 60.3458 38.4622 60.3458 37.9595V59.6414C60.3458 60.1442 60.7532 60.5516 61.256 60.5516H65.9969C66.4989 60.5516 66.9063 60.1442 66.9063 59.6414V37.9595C66.9063 38.4622 66.4989 38.8697 65.9969 38.8697Z" fill="#618988"/>
<path d="M80.0076 31.9644H75.2667C74.7639 31.9644 74.3565 32.3718 74.3565 32.8738V45.8735C74.3565 46.3755 74.7639 46.7829 75.2667 46.7829H80.0076C80.5104 46.7829 80.917 46.3755 80.917 45.8735V32.8738C80.917 32.3718 80.5096 31.9644 80.0076 31.9644Z" fill="#E6EEEE"/>
<path d="M80.0076 39.3736H75.2667C74.7639 39.3736 74.3565 38.9662 74.3565 38.4634V45.8731C74.3565 46.3751 74.7639 46.7825 75.2667 46.7825H80.0076C80.5104 46.7825 80.917 46.3751 80.917 45.8731V38.4634C80.917 38.9662 80.5096 39.3736 80.0076 39.3736Z" fill="#618988"/>
<path d="M94.0183 31.9644H89.2767C88.7747 31.9644 88.3672 32.3718 88.3672 32.8738V39.9653C88.3672 40.4681 88.7747 40.8747 89.2767 40.8747H94.0183C94.5204 40.8747 94.9278 40.4681 94.9278 39.9653V32.8738C94.9278 32.3718 94.5204 31.9644 94.0183 31.9644Z" fill="#E6EEEE"/>
<path d="M94.0183 36.3799H89.2767C88.7747 36.3799 88.3672 35.9725 88.3672 35.4697V39.965C88.3672 40.4677 88.7747 40.8752 89.2767 40.8752H94.0183C94.5204 40.8752 94.9278 40.4677 94.9278 39.965V35.4697C94.9278 35.9725 94.5204 36.3799 94.0183 36.3799Z" fill="#618988"/>
<path d="M92.6669 52.1751C91.994 52.1751 91.3279 52.3101 90.7084 52.5718L78.5144 57.7354C77.9345 57.9811 77.4058 58.3335 76.9557 58.7745L63.9666 71.5164C63.74 71.7391 63.4929 71.9398 63.2281 72.1153L52.3936 79.3098C50.7098 80.4275 48.5209 80.4275 46.8379 79.3098L37.2859 72.9675C36.2071 72.2511 34.8933 71.9795 33.6192 72.2084L8.78473 77.0339V86.8568H82.5915C91.7651 78.141 97.4872 65.8271 97.4902 52.1743H92.6669V52.1751Z" fill="#8CA6AA"/>
<path d="M49.058 85.5309C48.6109 85.4156 48.2554 85.0388 48.1845 84.5757C48.1173 84.137 48.292 83.7364 48.5942 83.4839C48.675 83.416 48.688 83.2962 48.6125 83.2222C48.1677 82.7827 47.8961 82.1678 47.9106 81.4903C47.922 80.9334 48.1364 80.4184 48.4797 80.0163C47.9052 79.8828 47.3483 79.6486 46.8379 79.3098L37.2859 72.9675C36.2071 72.2511 34.8933 71.9788 33.6192 72.2084L8.78473 77.034V86.8568H49.058V85.5309Z" fill="#8CA6AA"/>
<path d="M92.6669 68.9897C91.994 68.9897 91.3279 69.0592 90.7084 69.1942L78.5144 71.8546C77.9345 71.9805 77.4058 72.1628 76.9557 72.3902L63.9666 78.9545C63.74 79.0689 63.4928 79.1719 63.2281 79.2627L52.3936 82.9691C50.7098 83.5451 48.5209 83.5451 46.8379 82.9691L37.2859 79.7014C36.2071 79.3329 34.8933 79.1925 33.6192 79.3108L22.4574 80.3453C21.8867 80.3987 21.3374 80.5017 20.8354 80.6513L8.78473 84.2363V86.857H82.5915C87.7887 81.92 91.878 75.8272 94.4468 68.9897H92.6669Z" fill="#A2B9BD"/>
<path d="M49.058 85.5312C48.6109 85.416 48.2554 85.0391 48.1845 84.576C48.1173 84.1373 48.292 83.7368 48.5942 83.4842C48.6354 83.4499 48.6582 83.4011 48.6613 83.3522C48.0227 83.2889 47.4017 83.1623 46.8379 82.9692L37.2859 79.7016C36.2071 79.3331 34.8933 79.1927 33.6192 79.3109L22.4574 80.3455C21.8867 80.3981 21.3381 80.5019 20.8354 80.6514L8.78473 84.2357V86.8572H49.058V85.5312Z" fill="#A2B9BD"/>
<path d="M6.08649 85.3921C5.27777 85.3921 4.62164 86.0482 4.62164 86.8569C4.62164 87.6664 5.27777 88.3218 6.08649 88.3218H80.9789C82.0516 87.3918 83.0831 86.4137 84.0688 85.3921H6.08649Z" fill="#265958"/>
<path d="M47.5935 86.8569C47.5935 86.0482 48.2488 85.3921 49.0583 85.3921H6.08649C5.27777 85.3921 4.62164 86.0482 4.62164 86.8569C4.62164 87.6664 5.27777 88.3218 6.08649 88.3218H49.0583C48.2488 88.3218 47.5935 87.6664 47.5935 86.8569Z" fill="#0A5A57"/>
<path d="M8.78473 90.8595C7.97601 90.8595 7.31989 90.2041 7.31989 89.3947V5.08447C7.31989 4.27576 7.97601 3.61963 8.78473 3.61963C9.59345 3.61963 10.2496 4.27576 10.2496 5.08447V89.3947C10.2496 90.2041 9.59345 90.8595 8.78473 90.8595Z" fill="#265958"/>
<path d="M96.7854 14.4693C96.7854 21.0565 91.4448 26.3971 84.8576 26.3971C78.2703 26.3971 72.9297 21.0565 72.9297 14.4693C72.9297 7.88208 78.2703 2.5415 84.8576 2.5415C91.4448 2.5415 96.7854 7.88208 96.7854 14.4693Z" fill="#FFD47C"/>
<path d="M90.1913 23.3903C87.3775 22.9051 87.5568 20.4294 87.5568 20.4294L87.4149 19.3155H81.879V7.9736H80.6377C78.6457 6.92304 79.3499 4.93024 79.3499 4.93024V4.88675C78.9539 4.89133 78.5625 4.77155 78.2329 4.55029C75.0355 6.69034 72.9297 10.3334 72.9297 14.4693C72.9297 21.0565 78.2703 26.3971 84.8576 26.3971C86.6894 26.3971 88.4251 25.9828 89.9761 25.2443C89.7243 24.6271 89.8174 23.9213 90.1928 23.3903C90.192 23.3903 90.192 23.3903 90.1913 23.3903Z" fill="#FFB874"/>
<path d="M91.7973 26.4885C85.0216 30.4001 76.3272 28.0708 72.4156 21.2952C68.504 14.5203 70.834 5.8258 77.6089 1.91421C84.3838 -1.99738 93.0783 0.331874 96.9906 7.10754C100.902 13.8824 98.5722 22.5769 91.7973 26.4885ZM79.3499 4.93011C74.2375 7.88193 72.4797 14.4417 75.4315 19.5541C78.3833 24.6666 84.9438 26.4244 90.0555 23.4726C95.168 20.5215 96.9258 13.961 93.974 8.84857C91.0229 3.73611 84.4624 1.9783 79.3499 4.93011Z" fill="#FFF084"/>
<path d="M91.801 26.4864C91.772 26.4604 91.7362 26.4414 91.6927 26.4398C91.0396 26.4177 90.4125 26.0652 90.0707 25.4495C89.7037 24.7888 89.7747 23.9809 90.1912 23.3904C90.1455 23.4171 90.102 23.4461 90.0562 23.4728C84.9437 26.4246 78.3832 24.6668 75.4314 19.5543C72.4804 14.4426 74.2382 7.88208 79.3499 4.93027C79.3789 4.91348 79.4086 4.89899 79.4376 4.88297C78.7388 4.92188 78.0368 4.58237 77.6607 3.95447C77.2983 3.35022 77.3067 2.63153 77.6142 2.05475C77.6394 2.00668 77.6401 1.95251 77.6226 1.90674C77.618 1.90903 77.6134 1.91132 77.6088 1.91437C70.8339 5.82596 68.5039 14.5204 72.4155 21.2953C76.3279 28.071 85.0223 30.4003 91.7972 26.4887C91.7988 26.4879 91.7995 26.4871 91.801 26.4864Z" fill="#FFD47C"/>
<path d="M83.3958 8.20563V7.01926C83.3958 6.25784 82.7786 5.64062 82.0164 5.64062C81.255 5.64062 80.6378 6.25784 80.6378 7.01926V8.20563H83.3958Z" fill="#FF9165"/>
<path d="M80.6377 20.1973V21.3829C80.6377 22.1451 81.2549 22.7623 82.0164 22.7623C82.7785 22.7623 83.3958 22.1451 83.3958 21.3829V20.1973H80.6377Z" fill="#FF9165"/>
<path d="M86.1773 10.7325C85.4151 10.7325 84.7979 10.1153 84.7979 9.35309V7.02002C84.7979 6.25784 85.4159 5.64062 86.1773 5.64062C86.9387 5.64062 87.5559 6.25784 87.5559 7.02002V9.35385C87.5567 10.1153 86.9387 10.7325 86.1773 10.7325Z" fill="#FF9165"/>
<path d="M86.1773 22.7623C85.4151 22.7623 84.7979 22.1451 84.7979 21.3829V19.0498C84.7979 18.2876 85.4159 17.6704 86.1773 17.6704C86.9387 17.6704 87.5559 18.2876 87.5559 19.0498V21.3829C87.5567 22.1451 86.9387 22.7623 86.1773 22.7623Z" fill="#FF9165"/>
<path d="M90.2454 13.7107C90.5818 13.1438 90.7756 12.4831 90.7756 11.7774C90.7756 9.68005 89.0697 7.97412 86.9724 7.97412H80.2798C79.5177 7.97412 78.9005 8.59134 78.9005 9.35352C78.9005 10.1149 79.5177 10.7321 80.2798 10.7321H86.9724C87.5484 10.7321 88.0176 11.2014 88.0176 11.7774C88.0176 12.3534 87.5484 12.8218 86.9724 12.8218H82.0522C81.2907 12.8218 80.6735 13.4398 80.6735 14.2012C80.6735 14.9626 81.2907 15.5806 82.0522 15.5806H87.8055C88.3815 15.5806 88.85 16.0491 88.85 16.6251C88.85 17.2019 88.3815 17.6703 87.8055 17.6703H80.2798C79.5177 17.6703 78.9005 18.2883 78.9005 19.0497C78.9005 19.8111 79.5177 20.4291 80.2798 20.4291H87.8055C89.9028 20.4291 91.6087 18.7224 91.6087 16.6251C91.6087 15.4563 91.0777 14.4095 90.2454 13.7107Z" fill="#FFA46D"/>
<path d="M84.9441 12.8223H82.0525C81.2911 12.8223 80.6739 13.4402 80.6739 14.2017C80.6739 14.9631 81.2911 15.5811 82.0525 15.5811H84.9441C84.1819 15.5811 83.5647 14.9631 83.5647 14.2017C83.5647 13.4402 84.1819 12.8223 84.9441 12.8223Z" fill="#FF9165"/>
<path d="M80.2798 10.7324H84.8575C84.0961 10.7324 83.4789 10.1152 83.4789 9.35303C83.4789 8.59161 84.0961 7.97363 84.8575 7.97363H80.2798C79.5184 7.97363 78.9005 8.59161 78.9005 9.35303C78.9005 10.1152 79.5184 10.7324 80.2798 10.7324Z" fill="#FF9165"/>
<path d="M83.4782 19.0498C83.4782 18.2876 84.0954 17.6704 84.8576 17.6704H80.2799C79.5178 17.6704 78.9005 18.2876 78.9005 19.0498C78.9005 19.8112 79.5178 20.4284 80.2799 20.4284H84.8576C84.0962 20.4292 83.4782 19.8112 83.4782 19.0498Z" fill="#FF9165"/>
<path d="M80.6378 10.5015H83.3958V17.902H80.6378V10.5015Z" fill="#FF9165"/>
</g>
<defs>
<clipPath id="clip0_317_1285">
<rect width="100" height="100" fill="white" transform="translate(0.22467 0.0161133)"/>
</clipPath>
</defs>
</svg>
